<svg id="Layer_1" viewBox="0 0 512 512" xmlns="http://www.w3.org/2000/svg" data-name="Layer 1" fill="#005DAA">
    <path
        d="m465.208 190.728c0-36.911-28.475-67.278-64.607-70.335v-9.653c0-32.417-26.374-58.792-58.792-58.792h-70.398c-3.042-23.628-23.272-41.948-47.714-41.948s-44.672 18.32-47.715 41.948h-70.398c-32.418 0-58.792 26.374-58.792 58.792v332.468c0 32.418 26.374 58.792 58.792 58.792h236.225c32.418 0 58.792-26.374 58.792-58.792v-182.145c36.133-3.058 64.607-33.424 64.607-70.335zm-76.607-79.989v9.653c-6.221.526-12.217 1.851-17.877 3.891v-13.544c0-15.943-12.972-28.915-28.915-28.915h-69.988v-17.877h69.988c25.801 0 46.792 20.991 46.792 46.792zm-109.297-16.915v17.952h-111.216v-17.952zm-117.216 29.952h123.216c3.313 0 6-2.687 6-6v-23.952h50.505c9.327 0 16.915 7.588 16.915 16.915v19.209c-20.769 12.307-34.731 34.938-34.731 60.779s13.962 48.472 34.731 60.779v191.701c0 9.327-7.588 16.915-16.915 16.915h-236.225c-9.327 0-16.915-7.588-16.915-16.915v-332.468c0-9.327 7.588-16.915 16.915-16.915h50.504v23.952c0 3.313 2.687 6 6 6zm61.608-101.776c19.919 0 36.124 16.206 36.124 36.125v23.7h-72.249v-23.7c0-19.919 16.206-36.125 36.125-36.125zm118.112 468h-236.224c-25.801 0-46.792-20.991-46.792-46.792v-332.469c0-25.801 20.991-46.792 46.792-46.792h69.987v17.877h-69.987c-15.943 0-28.915 12.971-28.915 28.915v332.469c0 15.944 12.972 28.915 28.915 28.915h236.225c15.943 0 28.915-12.971 28.915-28.915v-186.036c5.66 2.04 11.656 3.365 17.877 3.891v182.145c0 25.801-20.991 46.792-46.792 46.792zm52.792-240.664c-32.316 0-58.608-26.292-58.608-58.608s26.292-58.608 58.608-58.608 58.607 26.292 58.607 58.608-26.291 58.608-58.607 58.608zm36.562-58.608c0 3.313-2.687 6-6 6h-24.562v24.562c0 3.313-2.687 6-6 6s-6-2.687-6-6v-24.562h-24.562c-3.313 0-6-2.687-6-6s2.687-6 6-6h24.562v-24.562c0-3.313 2.687-6 6-6s6 2.687 6 6v24.562h24.562c3.313 0 6 2.687 6 6zm-213.466 73.118c0-3.313 2.687-6 6-6h81.925c3.313 0 6 2.687 6 6s-2.687 6-6 6h-81.925c-3.313 0-6-2.687-6-6zm0 48.746c0-3.313 2.687-6 6-6h81.925c3.313 0 6 2.687 6 6s-2.687 6-6 6h-81.925c-3.313 0-6-2.687-6-6zm0 97.491c0-3.313 2.687-6 6-6h81.925c3.313 0 6 2.687 6 6s-2.687 6-6 6h-81.925c-3.313 0-6-2.687-6-6zm0-48.746c0-3.313 2.687-6 6-6h81.925c3.313 0 6 2.687 6 6s-2.687 6-6 6h-81.925c-3.313 0-6-2.687-6-6zm0-194.981c0-3.313 2.687-6 6-6h81.925c3.313 0 6 2.687 6 6s-2.687 6-6 6h-81.925c-3.313 0-6-2.687-6-6zm0 48.746c0-3.313 2.687-6 6-6h81.925c3.313 0 6 2.687 6 6s-2.687 6-6 6h-81.925c-3.313 0-6-2.687-6-6zm-102.468-48.746v48.746c0 3.313 2.687 6 6 6h48.745c3.313 0 6-2.687 6-6v-37.297l20.671-18.189c2.487-2.189 2.729-5.98.54-8.468-2.188-2.488-5.98-2.729-8.468-.541l-13.894 12.226c-1.091-1.499-2.854-2.477-4.849-2.477h-48.745c-3.313 0-6 2.687-6 6zm12 6h36.745v.024l-17.511 15.409-5.567-8.139c-1.869-2.733-5.602-3.436-8.34-1.564-2.735 1.871-3.436 5.605-1.564 8.34l9.395 13.733c.97 1.418 2.502 2.352 4.206 2.566.249.031.498.046.746.046 1.45 0 2.862-.526 3.964-1.496l14.672-12.91v20.737h-36.745v-36.746zm61.488 75.742-13.894 12.226c-1.091-1.499-2.854-2.477-4.849-2.477h-48.745c-3.313 0-6 2.687-6 6v48.746c0 3.313 2.687 6 6 6h48.745c3.313 0 6-2.687 6-6v-37.297l20.671-18.189c2.487-2.189 2.729-5.98.54-8.468-2.188-2.488-5.98-2.729-8.468-.541zm-24.743 58.495h-36.745v-36.746h36.745v.024l-17.511 15.409-5.567-8.139c-1.869-2.733-5.602-3.436-8.34-1.564-2.735 1.871-3.436 5.605-1.564 8.34l9.395 13.733c.97 1.418 2.502 2.352 4.206 2.566.249.031.498.046.746.046 1.45 0 2.862-.526 3.964-1.496l14.672-12.91v20.737zm24.743 38.996-13.894 12.226c-1.091-1.499-2.854-2.477-4.849-2.477h-48.745c-3.313 0-6 2.687-6 6v48.745c0 3.313 2.687 6 6 6h48.745c3.313 0 6-2.687 6-6v-37.297l20.671-18.189c2.487-2.189 2.729-5.98.54-8.468-2.188-2.489-5.98-2.729-8.468-.541zm-24.743 58.495h-36.745v-36.745h36.745v.023l-17.511 15.409-5.567-8.139c-1.869-2.733-5.602-3.436-8.34-1.564-2.735 1.871-3.436 5.605-1.564 8.34l9.395 13.733c.97 1.418 2.502 2.352 4.206 2.566.249.031.498.046.746.046 1.45 0 2.862-.526 3.964-1.496l14.672-12.91v20.737z" />
</svg>