<svg xmlns="http://www.w3.org/2000/svg" version="1.1" xmlns:xlink="http://www.w3.org/1999/xlink" width="512" height="512" x="0" y="0" viewBox="0 0 512 512" style="enable-background:new 0 0 512 512" xml:space="preserve" class=""><g><path d="M501.127 334.813c-3.532-10.427-11.968-18-23.754-21.323-12.681-3.575-29.174-2.436-49.021 3.387l-90.331 26.5c-4.626-9.45-13.154-16.932-24.092-19.863l-64.187-17.198c-46.844-32.826-71.946-23.396-108.858-5.344-17.688 8.648-35.223 16.993-51.793 24.825l-3.479-8.353c-4.615-11.085-17.39-16.355-28.482-11.752l-34.672 14.397c-5.402 2.244-9.599 6.437-11.814 11.808s-2.197 11.303.052 16.703l58.712 140.982C72.89 497.947 81.018 503 89.562 503c2.78 0 5.605-.535 8.328-1.666l34.672-14.398c5.402-2.243 9.598-6.436 11.814-11.806 2.216-5.371 2.198-11.304-.051-16.705l-3.933-9.444 22.598-10.987c8.254-4.013 16.551-4.72 25.365-2.161l72.118 20.939c5.311 1.542 10.799 2.202 16.367 2.202 19.168 0 39.268-7.822 56.163-14.397 1.488-.58 2.949-1.148 4.377-1.698l135.352-52.158c21.912-8.444 35.446-35.092 28.395-55.908zM131.435 469.79c-.789 1.912-2.295 3.409-4.242 4.217l-34.672 14.398c-3.964 1.646-8.538-.238-10.189-4.205L23.619 343.218c-.811-1.946-.822-4.07-.033-5.981.788-1.912 2.295-3.41 4.241-4.218l34.672-14.397a7.745 7.745 0 0 1 2.979-.596c3.057 0 5.964 1.808 7.21 4.8l58.713 140.981c.81 1.946.823 4.071.034 5.983zm336.263-92.132-135.351 52.158c-1.443.556-2.918 1.13-4.421 1.715-19.833 7.719-44.519 17.324-63.549 11.798l-72.118-20.94c-12.13-3.52-24.036-2.505-35.391 3.015L135 436.037l-40.522-97.302c16.79-7.934 34.583-16.399 52.554-25.186 34.503-16.872 54.427-24.314 95.646 4.916.677.48 1.435.836 2.237 1.052l65.39 17.521c12.617 3.381 20.132 16.396 16.751 29.013s-16.393 20.132-29.013 16.75l-86.902-23.285a7 7 0 0 0-3.623 13.523l86.902 23.285c20.066 5.38 40.778-6.576 46.159-26.649a37.515 37.515 0 0 0 1.163-12.798l90.55-26.564c29.92-8.777 50.693-5.414 55.574 8.994 4.625 13.649-5.365 32.647-20.168 38.351zm-303.07-150.027 118.686 68.523a6.997 6.997 0 0 0 7 0l61.451-35.479c5.632 24.21 27.369 42.308 53.269 42.308 30.162 0 54.701-24.539 54.701-54.702 0-27.629-20.594-50.525-47.234-54.179V84.522a6.999 6.999 0 0 0-3.5-6.062L290.313 9.937a7 7 0 0 0-7 0L164.628 78.46a6.999 6.999 0 0 0-3.5 6.062v137.046a7 7 0 0 0 3.5 6.063zm10.5-130.984 104.686 60.44v120.881l-104.686-60.44zm175.289 148.641-56.603 32.679v-120.88l28.835-16.648v44.978a6.999 6.999 0 0 0 10.5 6.062l33.017-19.062a7 7 0 0 0 3.5-6.062l-.001-53.061L398.5 96.647v97.336c-26.119 3.124-46.643 24.712-48.083 51.305zm5.248-82.974-19.017 10.979v-40.937l19.016-10.979zm-26.017-42.082-104.685-60.44 19.016-10.979 104.686 60.441zm-13.999 8.083-28.835 16.648-104.686-60.44 28.835-16.648zm130.085 119.966c0 22.443-18.259 40.702-40.701 40.702-22.443 0-40.702-18.259-40.702-40.702s18.259-40.702 40.702-40.702 40.701 18.259 40.701 40.702zM286.813 24.082 391.5 84.523l-28.835 16.648L257.979 40.73zm118.22 194.608a7 7 0 0 1 7 7v15.591h15.591a7 7 0 1 1 0 14h-15.591v15.592a7 7 0 1 1-14 0v-15.592h-15.592a7 7 0 1 1 0-14h15.592V225.69a7 7 0 0 1 7-7z" fill="#005daa" opacity="1" data-original="#000000"></path></g></svg>