<svg xmlns="http://www.w3.org/2000/svg" version="1.1" xmlns:xlink="http://www.w3.org/1999/xlink"
  xmlns:svgjs="http://svgjs.com/svgjs" width="512" height="512" x="0" y="0" viewBox="0 0 64 64"
  style="enable-background:new 0 0 512 512" xml:space="preserve" class="">
  <g>
    <g data-name="Authorization manager">
      <path
        d="M59 40v-7a9 9 0 0 0-18 0v1.943a16.7 16.7 0 0 0-4.44-1.631L32 32.219v-2.011A11 11 0 0 0 37 21v-3h1a1 1 0 0 0 1-1v-4A11.013 11.013 0 0 0 28 2h-4a11.013 11.013 0 0 0-11 11v4a1 1 0 0 0 1 1h1v3a11 11 0 0 0 5 9.208v2.011l-4.562 1.093A17.087 17.087 0 0 0 2 49.935V62h57a3 3 0 0 0 3-3V43a3 3 0 0 0-3-3Zm-16-7a7 7 0 0 1 14 0v7h-1v-7a6 6 0 0 0-12 0v7h-1Zm11 7h-8v-7a4 4 0 0 1 8 0Zm-13 0a3 3 0 0 0-3 3v16a2.966 2.966 0 0 0 .184 1H33.2l4.5-24.3a14.79 14.79 0 0 1 3.3 1.567Zm-15-2.72 1.121.9.15 1.347-1.271.419-1.271-.422.15-1.347Zm-1.5 4.277 1.183.392a1 1 0 0 0 .63 0l1.183-.392 1.455 13.076L26 57.586l-2.953-2.953Zm3.246-5.439 3.411-2.047 2.222.555-2.608 3.912ZM15 13a9.011 9.011 0 0 1 9-9h4a9.011 9.011 0 0 1 9 9v3h-1.077a2.99 2.99 0 0 1-2.343-1.125l-2.8-3.5a1 1 0 0 0-1.562 0l-1.6 2A6.966 6.966 0 0 1 22.155 16H15Zm2 8v-3h5.155a8.955 8.955 0 0 0 7.028-3.378L30 13.6l2.018 2.523A4.972 4.972 0 0 0 35 17.908V21a9 9 0 0 1-18 0Zm9 11a10.927 10.927 0 0 0 4-.764v1.2l-4 2.4-4-2.4v-1.2A10.927 10.927 0 0 0 26 32Zm-5.159 2.071 3.411 2.047-3.025 2.42-2.608-3.912ZM4 49.935A15.081 15.081 0 0 1 14.3 35.7L18.8 60H14V49a1 1 0 0 0-2 0v11H4ZM20.832 60l-4.6-24.814.308-.066 3.623 5.435a1 1 0 0 0 .679.433A.976.976 0 0 0 21 41a1 1 0 0 0 .625-.219l1.045-.837-1.664 14.945a1 1 0 0 0 .287.818l4 4a1 1 0 0 0 1.414 0l4-4a1 1 0 0 0 .287-.818L29.33 39.944l1.045.837A1 1 0 0 0 31 41a.976.976 0 0 0 .153-.012 1 1 0 0 0 .679-.433l3.623-5.434.308.066L31.168 60H20.832ZM60 59a1 1 0 0 1-1 1H41a1 1 0 0 1-1-1V43a1 1 0 0 1 1-1h18a1 1 0 0 1 1 1Z"
        fill="#005daa" data-original="#005daa" class=""></path>
      <path
        d="M50 46a2.993 2.993 0 0 0-1 5.816V57a1 1 0 0 0 2 0v-5.184A2.993 2.993 0 0 0 50 46Zm0 4a1 1 0 1 1 1-1 1 1 0 0 1-1 1Z"
        fill="#005daa" data-original="#005daa" class=""></path>
    </g>
  </g>
</svg>