<svg width="98" height="98" viewBox="0 0 98 98" fill="none" xmlns="http://www.w3.org/2000/svg">
  <path
    d="M41 54.3333H3.66667C2.06667 54.3333 1 55.4 1 57V94.3333C1 95.9333 2.06667 97 3.66667 97H41C42.6 97 43.6667 95.9333 43.6667 94.3333V57C43.6667 55.4 42.6 54.3333 41 54.3333ZM38.3333 91.6667H6.33333V59.6667H38.3333V91.6667ZM41 1H3.66667C2.06667 1 1 2.06667 1 3.66667V41C1 42.6 2.06667 43.6667 3.66667 43.6667H41C42.6 43.6667 43.6667 42.6 43.6667 41V3.66667C43.6667 2.06667 42.6 1 41 1ZM38.3333 38.3333H6.33333V6.33333H38.3333V38.3333ZM94.3333 1H57C55.4 1 54.3333 2.06667 54.3333 3.66667V41C54.3333 42.6 55.4 43.6667 57 43.6667H94.3333C95.9333 43.6667 97 42.6 97 41V3.66667C97 2.06667 95.9333 1 94.3333 1ZM91.6667 38.3333H59.6667V6.33333H91.6667V38.3333ZM94.3333 73H78.3333V57C78.3333 55.4 77.2667 54.3333 75.6667 54.3333C74.0667 54.3333 73 55.4 73 57V73H57C55.4 73 54.3333 74.0667 54.3333 75.6667C54.3333 77.2667 55.4 78.3333 57 78.3333H73V94.3333C73 95.9333 74.0667 97 75.6667 97C77.2667 97 78.3333 95.9333 78.3333 94.3333V78.3333H94.3333C95.9333 78.3333 97 77.2667 97 75.6667C97 74.0667 95.9333 73 94.3333 73Z"
    fill="#005DAA" stroke="#005DAA" stroke-width="0.7" />
</svg>