<svg xmlns="http://www.w3.org/2000/svg" version="1.1" xmlns:xlink="http://www.w3.org/1999/xlink" xmlns:svgjs="http://svgjs.com/svgjs" width="512" height="512" x="0" y="0" viewBox="0 0 64 64" style="enable-background:new 0 0 512 512" xml:space="preserve" class=""><g><path d="M61 39h-6v-3c0-1.654-1.346-3-3-3H42c-.862 0-1.635.371-2.183.955L29 32.153v-2.506c2.984-1.732 5-4.955 5-8.647h1c1.654 0 3-1.346 3-3s-1.346-3-3-3h-.48l.548-1.271a8.095 8.095 0 0 0-.49-7.355 8.033 8.033 0 0 0-3.579-3.195l-2.791-1.271c-3.295-1.5-7.334-1.061-10.231 1.11L16.4 4.2l.002.003a6.261 6.261 0 0 0-3.783 2.821 6.202 6.202 0 0 0-.23 5.99L13.382 15H13c-1.654 0-3 1.346-3 3s1.346 3 3 3h1c0 3.692 2.016 6.915 5 8.647v2.506L6.849 34.178A6.978 6.978 0 0 0 1 41.083V62a1 1 0 0 0 1 1h59c1.103 0 2-.897 2-2V41c0-1.103-.897-2-2-2zm-8-3v3h-6.332a7.006 7.006 0 0 0-3.239-4H52c.551 0 1 .448 1 1zm-12 .195A4.995 4.995 0 0 1 44.53 39H41zM36 18c0 .551-.449 1-1 1h-1v-2h1c.551 0 1 .449 1 1zM14.334 8.053A4.252 4.252 0 0 1 17.96 6c1.568 0 3.023.779 3.894 2.083l.314.471 1.664-1.109-.314-.471a6.66 6.66 0 0 0-3.772-2.724c2.264-1.404 5.197-1.632 7.633-.523l2.791 1.271a6.051 6.051 0 0 1 2.693 2.404 6.091 6.091 0 0 1 .369 5.534l-.067.156-1.27-2.54a1 1 0 0 0-1.495-.353l-1.6 1.2C27.424 12.432 25.719 13 24 13s-3.424-.568-4.8-1.6l-1.6-1.2a1 1 0 0 0-1.495.353l-1.355 2.711-.572-1.144a4.209 4.209 0 0 1 .156-4.067zM13 19c-.551 0-1-.449-1-1s.449-1 1-1h1v2zm3 2v-5.764l1.358-2.717L18 13c1.72 1.29 3.851 2 6 2s4.28-.71 6-2l.642-.481L32 15.236V21c0 4.411-3.589 8-8 8s-8-3.589-8-8zm8 10a9.954 9.954 0 0 0 3-.461v2.047l-3 3-3-3v-2.047A9.954 9.954 0 0 0 24 31zm-.323 11h.646l1.632 4.08L24 54.553l-1.955-8.473zm2.219-4.147L24.465 40h-.93l-1.432-2.147.334-1.001.856.856a1 1 0 0 0 1.414-.001l.856-.856zM13 61V44h-2v17H3V41.083a4.986 4.986 0 0 1 4.178-4.933l12.479-2.079 1.199 1.199-.805 2.414a.996.996 0 0 0 .117.871l1.708 2.562-1.805 4.512a1.004 1.004 0 0 0-.046.596l3 13a1 1 0 0 0 1.95 0l3-13c.045-.198.03-.406-.046-.596l-1.805-4.512 1.708-2.562c.171-.257.214-.578.117-.871l-.805-2.414 1.199-1.199 10.672 1.778c-.002.051-.015.099-.015.151v3h-6c-1.103 0-2 .897-2 2v20zm21 0h-1v-2h28.001v2zm27.001-4H33v-8.111A6.973 6.973 0 0 0 38 51h6v1c0 1.654 1.346 3 3 3s3-1.346 3-3v-1h6a6.98 6.98 0 0 0 5.001-2.111zM46 52v-5h2v5a1.001 1.001 0 0 1-2 0zm15-8c0 2.757-2.243 5-5 5h-6v-3a1 1 0 0 0-1-1h-4a1 1 0 0 0-1 1v3h-6c-2.757 0-5-2.243-5-5v-3h28z" fill="#005daa" data-original="#005daa" class=""></path></g></svg>