<svg xmlns="http://www.w3.org/2000/svg" version="1.1" xmlns:xlink="http://www.w3.org/1999/xlink" width="512" height="512" x="0" y="0" viewBox="0 0 682.667 682.667" style="enable-background:new 0 0 512 512" xml:space="preserve" class=""><g><defs><clipPath id="a" clipPathUnits="userSpaceOnUse"><path d="M0 512h512V0H0Z" fill="#005daa" opacity="1" data-original="#000000"></path></clipPath></defs><path d="M0 0v-90.364" style="stroke-width:15;stroke-linecap:round;stroke-linejoin:round;stroke-miterlimit:10;stroke-dasharray:none;stroke-opacity:1" transform="matrix(1.33333 0 0 -1.33333 344.693 353.1)" fill="none" stroke="#005daa" stroke-width="15" stroke-linecap="round" stroke-linejoin="round" stroke-miterlimit="10" stroke-dasharray="none" stroke-opacity="" data-original="#000000" opacity="1" class=""></path><g clip-path="url(#a)" transform="matrix(1.33333 0 0 -1.33333 0 682.667)"><path d="M0 0v40.569a4.58 4.58 0 0 0 4.584 4.584h173.771" style="stroke-width:15;stroke-linecap:round;stroke-linejoin:round;stroke-miterlimit:10;stroke-dasharray:none;stroke-opacity:1" transform="translate(80.164 156.84)" fill="none" stroke="#005daa" stroke-width="15" stroke-linecap="round" stroke-linejoin="round" stroke-miterlimit="10" stroke-dasharray="none" stroke-opacity="" data-original="#000000" opacity="1" class=""></path><path d="M0 0v40.569a4.58 4.58 0 0 1-4.584 4.584h-168.732" style="stroke-width:15;stroke-linecap:round;stroke-linejoin:round;stroke-miterlimit:10;stroke-dasharray:none;stroke-opacity:1" transform="translate(431.836 156.84)" fill="none" stroke="#005daa" stroke-width="15" stroke-linecap="round" stroke-linejoin="round" stroke-miterlimit="10" stroke-dasharray="none" stroke-opacity="" data-original="#000000" opacity="1" class=""></path><path d="M0 0c22.237 36.499 62.413 60.869 108.283 60.869 69.959 0 126.678-56.713 126.678-126.663 0-69.951-56.719-126.663-126.678-126.663-69.987 0-126.677 56.712-126.677 126.663 0 11.473 1.509 22.548 4.357 33.11" style="stroke-width:15;stroke-linecap:round;stroke-linejoin:round;stroke-miterlimit:10;stroke-dasharray:none;stroke-opacity:1" transform="translate(150.236 439.631)" fill="none" stroke="#005daa" stroke-width="15" stroke-linecap="round" stroke-linejoin="round" stroke-miterlimit="10" stroke-dasharray="none" stroke-opacity="" data-original="#000000" opacity="1" class=""></path><path d="M0 0v8.997c0 29.495-23.633 33.964-43.706 39.459-7.09 1.908-8.941 11.046-10.394 14.007m-42.225 0c-1.452-2.961-3.303-12.099-10.393-14.007-20.073-5.495-43.706-9.964-43.706-39.459V0" style="stroke-width:15;stroke-linecap:round;stroke-linejoin:round;stroke-miterlimit:10;stroke-dasharray:none;stroke-opacity:1" transform="translate(333.718 271.915)" fill="none" stroke="#005daa" stroke-width="15" stroke-linecap="round" stroke-linejoin="round" stroke-miterlimit="10" stroke-dasharray="none" stroke-opacity="" data-original="#000000" opacity="1" class=""></path><path d="M0 0v-16.484c0-19.331-18.165-43.588-40.375-51.815-9.737-3.616-17.226-3.616-26.964 0-22.209 8.227-40.375 32.484-40.375 51.815V0" style="stroke-width:15;stroke-linecap:round;stroke-linejoin:round;stroke-miterlimit:10;stroke-dasharray:none;stroke-opacity:1" transform="translate(312.362 399.147)" fill="none" stroke="#005daa" stroke-width="15" stroke-linecap="round" stroke-linejoin="round" stroke-miterlimit="10" stroke-dasharray="none" stroke-opacity="" data-original="#000000" opacity="1" class=""></path><path d="m0 0 33.456-19.644c5.666-3.673 8.94-3.673 14.607 0L81.519 0" style="stroke-width:15;stroke-linecap:round;stroke-linejoin:round;stroke-miterlimit:10;stroke-dasharray:none;stroke-opacity:1" transform="translate(217.746 317.865)" fill="none" stroke="#005daa" stroke-width="15" stroke-linecap="round" stroke-linejoin="round" stroke-miterlimit="10" stroke-dasharray="none" stroke-opacity="" data-original="#000000" opacity="1" class=""></path><path d="M0 0c-4.327 0-8.627 1.509-20.272 4.527C-35.335 8.399-32.089-8.256-53.871-9.765c0 40 26.935 60.271 53.871 60.698 26.907-.427 53.843-20.698 53.843-60.698C32.062-8.256 35.308 8.399 20.245 4.527 8.628 1.509 4.3 0 0 0Z" style="stroke-width:15;stroke-linecap:round;stroke-linejoin:round;stroke-miterlimit:10;stroke-dasharray:none;stroke-opacity:1" transform="translate(258.52 408.912)" fill="none" stroke="#005daa" stroke-width="15" stroke-linecap="round" stroke-linejoin="round" stroke-miterlimit="10" stroke-dasharray="none" stroke-opacity="" data-original="#000000" opacity="1" class=""></path><path d="M0 0c16.913 0 30.665-13.723 30.665-30.662 0-16.911-13.752-30.662-30.665-30.662-16.942 0-30.666 13.751-30.666 30.662C-30.666-13.723-16.942 0 0 0Z" style="stroke-width:15;stroke-linecap:round;stroke-linejoin:round;stroke-miterlimit:10;stroke-dasharray:none;stroke-opacity:1" transform="translate(80.164 125.92)" fill="none" stroke="#005daa" stroke-width="15" stroke-linecap="round" stroke-linejoin="round" stroke-miterlimit="10" stroke-dasharray="none" stroke-opacity="" data-original="#000000" opacity="1" class=""></path><path d="M0 0c0 18.933 11.36 35.331 27.619 42.705m38.467 0C82.345 35.331 93.733 18.933 93.733 0" style="stroke-width:15;stroke-linecap:round;stroke-linejoin:round;stroke-miterlimit:10;stroke-dasharray:none;stroke-opacity:1" transform="translate(33.297 28.668)" fill="none" stroke="#005daa" stroke-width="15" stroke-linecap="round" stroke-linejoin="round" stroke-miterlimit="10" stroke-dasharray="none" stroke-opacity="" data-original="#000000" opacity="1" class=""></path><path d="M0 0c40.005 0 72.663 32.626 72.663 72.626 0 40.029-32.658 72.656-72.663 72.656-40.034 0-72.664-32.627-72.664-72.656C-72.664 32.626-40.034 0 0 0Z" style="stroke-width:15;stroke-linecap:round;stroke-linejoin:round;stroke-miterlimit:10;stroke-dasharray:none;stroke-opacity:1" transform="translate(80.164 11.557)" fill="none" stroke="#005daa" stroke-width="15" stroke-linecap="round" stroke-linejoin="round" stroke-miterlimit="10" stroke-dasharray="none" stroke-opacity="" data-original="#000000" opacity="1" class=""></path><path d="M0 0c16.913 0 30.666-13.722 30.666-30.662 0-16.94-13.753-30.662-30.666-30.662-16.941 0-30.665 13.722-30.665 30.662C-30.665-13.722-16.941 0 0 0Z" style="stroke-width:15;stroke-linecap:round;stroke-linejoin:round;stroke-miterlimit:10;stroke-dasharray:none;stroke-opacity:1" transform="translate(258.52 125.892)" fill="none" stroke="#005daa" stroke-width="15" stroke-linecap="round" stroke-linejoin="round" stroke-miterlimit="10" stroke-dasharray="none" stroke-opacity="" data-original="#000000" opacity="1" class=""></path><path d="M0 0c0 18.932 11.36 35.331 27.619 42.705m38.467 0C82.344 35.331 93.705 18.932 93.705 0" style="stroke-width:15;stroke-linecap:round;stroke-linejoin:round;stroke-miterlimit:10;stroke-dasharray:none;stroke-opacity:1" transform="translate(211.653 28.64)" fill="none" stroke="#005daa" stroke-width="15" stroke-linecap="round" stroke-linejoin="round" stroke-miterlimit="10" stroke-dasharray="none" stroke-opacity="" data-original="#000000" opacity="1" class=""></path><path d="M0 0c12.045 8.883 26.965 14.149 43.108 14.149 40.12 0 72.636-32.541 72.636-72.655 0-40.114-32.516-72.655-72.636-72.655-40.146 0-72.663 32.541-72.663 72.655 0 11.53 2.676 22.463 7.46 32.143" style="stroke-width:15;stroke-linecap:round;stroke-linejoin:round;stroke-miterlimit:10;stroke-dasharray:none;stroke-opacity:1" transform="translate(215.411 142.661)" fill="none" stroke="#005daa" stroke-width="15" stroke-linecap="round" stroke-linejoin="round" stroke-miterlimit="10" stroke-dasharray="none" stroke-opacity="" data-original="#000000" opacity="1" class=""></path><path d="M0 0c16.942 0 30.666-13.723 30.666-30.662 0-16.911-13.724-30.662-30.666-30.662-16.913 0-30.665 13.751-30.665 30.662C-30.665-13.723-16.913 0 0 0Z" style="stroke-width:15;stroke-linecap:round;stroke-linejoin:round;stroke-miterlimit:10;stroke-dasharray:none;stroke-opacity:1" transform="translate(431.836 125.92)" fill="none" stroke="#005daa" stroke-width="15" stroke-linecap="round" stroke-linejoin="round" stroke-miterlimit="10" stroke-dasharray="none" stroke-opacity="" data-original="#000000" opacity="1" class=""></path><path d="M0 0c0 18.933 11.36 35.331 27.619 42.705m38.467 0C82.345 35.331 93.705 18.933 93.705 0" style="stroke-width:15;stroke-linecap:round;stroke-linejoin:round;stroke-miterlimit:10;stroke-dasharray:none;stroke-opacity:1" transform="translate(384.998 28.668)" fill="none" stroke="#005daa" stroke-width="15" stroke-linecap="round" stroke-linejoin="round" stroke-miterlimit="10" stroke-dasharray="none" stroke-opacity="" data-original="#000000" opacity="1" class=""></path><path d="M0 0c40.034 0 72.664 32.626 72.664 72.626 0 40.029-32.63 72.656-72.664 72.656-40.005 0-72.635-32.627-72.635-72.656C-72.635 32.626-40.005 0 0 0Z" style="stroke-width:15;stroke-linecap:round;stroke-linejoin:round;stroke-miterlimit:10;stroke-dasharray:none;stroke-opacity:1" transform="translate(431.836 11.557)" fill="none" stroke="#005daa" stroke-width="15" stroke-linecap="round" stroke-linejoin="round" stroke-miterlimit="10" stroke-dasharray="none" stroke-opacity="" data-original="#000000" opacity="1" class=""></path></g></g></svg>