<?xml version="1.0" encoding="UTF-8" standalone="no"?>
<!-- Created with Inkscape (http://www.inkscape.org/) -->

<svg
   version="1.1"
   id="svg393"
   xml:space="preserve"
   width="682.66669"
   height="682.66669"
   viewBox="0 0 682.66669 682.66669"
   xmlns="http://www.w3.org/2000/svg"
   xmlns:svg="http://www.w3.org/2000/svg"><defs
     id="defs397"><clipPath
       clipPathUnits="userSpaceOnUse"
       id="clipPath411"><path
         d="M 0,512 H 512 V 0 H 0 Z"
         id="path409" /></clipPath></defs><g
     id="g399"
     transform="matrix(1.3333333,0,0,-1.3333333,0,682.66667)"><g
       id="g401"
       transform="translate(130.2222,431.7515)"><path
         d="M 0,0 H 182.295"
         style="fill:none;stroke:#000000;stroke-width:15;stroke-linecap:round;stroke-linejoin:round;stroke-miterlimit:10;stroke-dasharray:none;stroke-opacity:1"
         id="path403" /></g><g
       id="g405"><g
         id="g407"
         clip-path="url(#clipPath411)"><g
           id="g413"
           transform="translate(414.8228,431.7515)"><path
             d="m 0,0 h 82.172 c 4.23,0 7.66,-3.43 7.66,-7.66 v -92.319 h -497.31 V -7.66 c 0,4.23 3.43,7.66 7.661,7.66 h 82.171"
             style="fill:none;stroke:#000000;stroke-width:15;stroke-linecap:round;stroke-linejoin:round;stroke-miterlimit:10;stroke-dasharray:none;stroke-opacity:1"
             id="path415" /></g><g
           id="g417"
           transform="translate(347.0054,431.7515)"><path
             d="M 0,0 H 34.772"
             style="fill:none;stroke:#000000;stroke-width:15;stroke-linecap:round;stroke-linejoin:round;stroke-miterlimit:10;stroke-dasharray:none;stroke-opacity:1"
             id="path419" /></g><g
           id="g421"
           transform="translate(81.3047,42.8408)"><path
             d="m 0,0 h -66.299 c -4.231,0 -7.66,3.429 -7.66,7.66 V 288.931 H 423.35 V 7.66 C 423.35,3.429 419.92,0 415.69,0 H 35.134"
             style="fill:none;stroke:#000000;stroke-width:15;stroke-linecap:round;stroke-linejoin:round;stroke-miterlimit:10;stroke-dasharray:none;stroke-opacity:1"
             id="path423" /></g><g
           id="g425"
           transform="translate(113.6997,397.7637)"><path
             d="m 0,0 v 0 c -9.125,0 -16.522,7.397 -16.522,16.522 v 38.351 c 0,9.125 7.397,16.523 16.522,16.523 9.125,0 16.522,-7.398 16.522,-16.523 V 16.522 C 16.522,7.397 9.125,0 0,0 Z"
             style="fill:none;stroke:#000000;stroke-width:15;stroke-linecap:round;stroke-linejoin:round;stroke-miterlimit:10;stroke-dasharray:none;stroke-opacity:1"
             id="path427" /></g><g
           id="g429"
           transform="translate(398.3003,397.7637)"><path
             d="m 0,0 v 0 c -9.125,0 -16.522,7.397 -16.522,16.522 v 38.351 c 0,9.125 7.397,16.523 16.522,16.523 9.125,0 16.522,-7.398 16.522,-16.523 V 16.522 C 16.522,7.397 9.125,0 0,0 Z"
             style="fill:none;stroke:#000000;stroke-width:15;stroke-linecap:round;stroke-linejoin:round;stroke-miterlimit:10;stroke-dasharray:none;stroke-opacity:1"
             id="path431" /></g><g
           id="g433"
           transform="translate(363.9316,158.3008)"><path
             d="m 0,0 21.783,57.194 c 0.446,1.088 1.986,1.09 2.433,0.003 L 45.801,0"
             style="fill:none;stroke:#000000;stroke-width:15;stroke-linecap:round;stroke-linejoin:round;stroke-miterlimit:10;stroke-dasharray:none;stroke-opacity:1"
             id="path435" /></g><g
           id="g437"
           transform="translate(370.7251,172.5449)"><path
             d="M 0,0 H 32.324"
             style="fill:none;stroke:#000000;stroke-width:15;stroke-linecap:round;stroke-linejoin:round;stroke-miterlimit:10;stroke-dasharray:none;stroke-opacity:1"
             id="path439" /></g><g
           id="g441"
           transform="translate(208.5298,216.312)"><path
             d="m 0,0 v -57.962 c 0.641,-0.11 20.314,0 20.314,0"
             style="fill:none;stroke:#000000;stroke-width:15;stroke-linecap:round;stroke-linejoin:round;stroke-miterlimit:10;stroke-dasharray:none;stroke-opacity:1"
             id="path443" /></g><g
           id="g445"
           transform="translate(261.396,216.312)"><path
             d="M 0,0 V -58.011"
             style="fill:none;stroke:#000000;stroke-width:15;stroke-linecap:round;stroke-linejoin:round;stroke-miterlimit:10;stroke-dasharray:none;stroke-opacity:1"
             id="path447" /></g><g
           id="g449"
           transform="translate(45.269,216.312)"><path
             d="M 0,0 V -58.011"
             style="fill:none;stroke:#000000;stroke-width:15;stroke-linecap:round;stroke-linejoin:round;stroke-miterlimit:10;stroke-dasharray:none;stroke-opacity:1"
             id="path451" /></g><g
           id="g453"
           transform="translate(85.4136,216.312)"><path
             d="M 0,0 V -58.011"
             style="fill:none;stroke:#000000;stroke-width:15;stroke-linecap:round;stroke-linejoin:round;stroke-miterlimit:10;stroke-dasharray:none;stroke-opacity:1"
             id="path455" /></g><g
           id="g457"
           transform="translate(45.269,188.3013)"><path
             d="M 0,0 H 40.145"
             style="fill:none;stroke:#000000;stroke-width:15;stroke-linecap:round;stroke-linejoin:round;stroke-miterlimit:10;stroke-dasharray:none;stroke-opacity:1"
             id="path459" /></g><g
           id="g461"
           transform="translate(298.4243,214.5376)"><path
             d="M 0,0 V -55.322"
             style="fill:none;stroke:#000000;stroke-width:15;stroke-linecap:round;stroke-linejoin:round;stroke-miterlimit:10;stroke-dasharray:none;stroke-opacity:1"
             id="path463" /></g><g
           id="g465"
           transform="translate(337.1021,186.4482)"><path
             d="m 0,0 c 0,-15.511 -8.609,-27.785 -22.268,-28.023 -4.546,-0.08 -16.296,-0.124 -16.296,-0.124 0,0 -0.073,20.391 -0.073,28.209 0,6.422 -0.041,28.086 -0.041,28.086 h 15.944 C -7.753,28.148 0,15.511 0,0 Z"
             style="fill:none;stroke:#000000;stroke-width:15;stroke-linecap:round;stroke-linejoin:round;stroke-miterlimit:10;stroke-dasharray:none;stroke-opacity:1"
             id="path467" /></g><g
           id="g469"
           transform="translate(429.8232,216.312)"><path
             d="M 0,0 18.53,-28.378 36.908,-0.147"
             style="fill:none;stroke:#000000;stroke-width:15;stroke-linecap:round;stroke-linejoin:round;stroke-miterlimit:10;stroke-dasharray:none;stroke-opacity:1"
             id="path471" /></g><g
           id="g473"
           transform="translate(448.2803,158.3008)"><path
             d="M 0,0 0.073,29.633"
             style="fill:none;stroke:#000000;stroke-width:15;stroke-linecap:round;stroke-linejoin:round;stroke-miterlimit:10;stroke-dasharray:none;stroke-opacity:1"
             id="path475" /></g><g
           id="g477"
           transform="translate(175.9775,187.3062)"><path
             d="m 0,0 c 0,-16.019 -12.986,-29.005 -29.006,-29.005 -16.019,0 -29.005,12.986 -29.005,29.005 0,16.02 12.986,29.006 29.005,29.006 C -12.986,29.006 0,16.02 0,0 Z"
             style="fill:none;stroke:#000000;stroke-width:15;stroke-linecap:round;stroke-linejoin:round;stroke-miterlimit:10;stroke-dasharray:none;stroke-opacity:1"
             id="path479" /></g></g></g></g></svg>
