<svg xmlns="http://www.w3.org/2000/svg" version="1.1" xmlns:xlink="http://www.w3.org/1999/xlink" width="512" height="512" x="0" y="0" viewBox="0 0 60 60" style="enable-background:new 0 0 512 512" xml:space="preserve" class=""><g><g fill="#000" fill-rule="nonzero"><path d="M35.933 4.372a2.018 2.018 0 0 0-1.613-1.358l-1.745-.266-.744-1.584a2.022 2.022 0 0 0-3.662 0l-.744 1.584-1.745.267a2.022 2.022 0 0 0-1.142 3.412l1.325 1.359-.3 1.863a2.022 2.022 0 0 0 2.975 2.1L30 10.935l1.465.811a2.014 2.014 0 0 0 2.144-.117c.636-.444.96-1.215.831-1.98l-.3-1.863 1.325-1.359c.53-.542.711-1.337.468-2.055zm-3.58 2.378a1 1 0 0 0-.271.859l.351 2.386-1.949-1.078a1 1 0 0 0-.968 0l-1.983 1.054.385-2.362a1 1 0 0 0-.271-.859l-1.665-1.758 2.272-.347a1 1 0 0 0 .755-.564l1-2.08.007.012.97 2.068a1 1 0 0 0 .755.564l2.285.385zM21.9 6a1.911 1.911 0 0 0-1.523-1.285l-1.5-.231-.641-1.376a1.911 1.911 0 0 0-3.467 0l-.641 1.376-1.5.231a1.923 1.923 0 0 0-1.082 3.237l1.15 1.188-.264 1.631a1.91 1.91 0 0 0 2.817 1.986l1.255-.7 1.254.7a1.915 1.915 0 0 0 2.818-1.986l-.264-1.631 1.15-1.188c.5-.517.67-1.27.438-1.952zm-3.378 2.108a1 1 0 0 0-.269.855l.317 1.958-1.584-.881a1 1 0 0 0-.972 0l-1.584.881.317-1.958a1 1 0 0 0-.269-.855l-1.395-1.441 1.875-.289a1 1 0 0 0 .755-.565l.76-1.75.814 1.75a1 1 0 0 0 .755.565l1.875.289zM9.9 9.63a1.807 1.807 0 0 0-1.438-1.216l-1.276-.2-.544-1.165a1.809 1.809 0 0 0-3.283 0l-.545 1.17-1.276.2a1.821 1.821 0 0 0-1.025 3.06l.987 1.015-.226 1.394a1.81 1.81 0 0 0 2.665 1.882L5 15.179l1.061.591a1.813 1.813 0 0 0 2.668-1.881L8.5 12.494l.984-1.015c.474-.49.635-1.203.416-1.849zm-3.182 1.833a1 1 0 0 0-.269.855l.245 1.515-1.207-.672a1 1 0 0 0-.974 0l-1.207.672.245-1.515a1 1 0 0 0-.269-.855l-1.09-1.126 1.455-.224a1 1 0 0 0 .753-.566L5 8.261l.6 1.286a1 1 0 0 0 .754.566l1.455.224zM48.9 6a1.911 1.911 0 0 0-1.523-1.285l-1.5-.231-.642-1.377a1.911 1.911 0 0 0-3.466 0l-.641 1.376-1.5.231a1.923 1.923 0 0 0-1.082 3.237l1.15 1.188-.264 1.631a1.91 1.91 0 0 0 2.817 1.986l1.255-.7 1.254.7a1.915 1.915 0 0 0 2.818-1.986l-.264-1.631 1.15-1.188c.5-.517.67-1.27.438-1.951zm-3.378 2.108a1 1 0 0 0-.269.855l.317 1.958-1.584-.881a1 1 0 0 0-.972 0l-1.584.881.317-1.958a1 1 0 0 0-.269-.855l-1.4-1.441 1.875-.289a1 1 0 0 0 .755-.565l.792-1.691.787 1.691a1 1 0 0 0 .755.565l1.875.289zM52.021 15.67a1.8 1.8 0 0 0 1.918.1L55 15.179l1.061.591a1.813 1.813 0 0 0 2.668-1.881l-.229-1.395.984-1.015a1.821 1.821 0 0 0-1.025-3.065l-1.276-.2-.544-1.169a1.81 1.81 0 0 0-3.284 0l-.544 1.169-1.276.2a1.821 1.821 0 0 0-1.025 3.065l.984 1.015-.226 1.394c-.115.69.178 1.384.753 1.782zm1.626-5.557a1 1 0 0 0 .754-.566L55 8.261l.6 1.286a1 1 0 0 0 .754.566l1.455.224-1.09 1.126a1 1 0 0 0-.269.855l.245 1.515-1.207-.672a1 1 0 0 0-.974 0l-1.207.672.245-1.515a1 1 0 0 0-.269-.855l-1.09-1.126zM2 60h56a2 2 0 0 0 2-2V48a2 2 0 0 0-2-2h-3V21a3 3 0 0 0-3-3H41v-1a3 3 0 0 0-3-3H22a3 3 0 0 0-3 3v1H8a3 3 0 0 0-3 3v25H2a2 2 0 0 0-2 2v10a2 2 0 0 0 2 2zm6-2v-5h4v5zm18-6h3v6h-3zm5 6v-6h3v6zm17 0v-5h4v5zm4-38a1 1 0 0 1 1 1v25H41V20zm-31-3a1 1 0 0 1 1-1h16a1 1 0 0 1 1 1v29H21zM7 21a1 1 0 0 1 1-1h11v26H7zM2 48h56v10h-4v-5a1 1 0 0 0 0-2h-8a1 1 0 0 0 0 2v5H36v-6h1a1 1 0 0 0 0-2H23a1 1 0 0 0 0 2h1v6H14v-5a1 1 0 0 0 0-2H6a1 1 0 0 0 0 2v5H2z" fill="#005daa" opacity="1" data-original="#000000" class=""></path><path d="M25 25h2a2 2 0 0 0 2-2v-2a2 2 0 0 0-2-2h-2a2 2 0 0 0-2 2v2a2 2 0 0 0 2 2zm0-4h2v2h-2zM33 25h2a2 2 0 0 0 2-2v-2a2 2 0 0 0-2-2h-2a2 2 0 0 0-2 2v2a2 2 0 0 0 2 2zm0-4h2v2h-2zM25 34h2a2 2 0 0 0 2-2v-2a2 2 0 0 0-2-2h-2a2 2 0 0 0-2 2v2a2 2 0 0 0 2 2zm2-4v2h-2v-2zM33 34h2a2 2 0 0 0 2-2v-2a2 2 0 0 0-2-2h-2a2 2 0 0 0-2 2v2a2 2 0 0 0 2 2zm2-4v2h-2v-2zM27 37h-2a2 2 0 0 0-2 2v2a2 2 0 0 0 2 2h2a2 2 0 0 0 2-2v-2a2 2 0 0 0-2-2zm-2 4v-2h2v2zM11 28h4a2 2 0 0 0 2-2v-2a2 2 0 0 0-2-2h-4a2 2 0 0 0-2 2v2a2 2 0 0 0 2 2zm0-4h4v2h-4zM15 30h-4a2 2 0 0 0-2 2v2a2 2 0 0 0 2 2h4a2 2 0 0 0 2-2v-2a2 2 0 0 0-2-2zm-4 4v-2h4v2zM15 38h-4a2 2 0 0 0-2 2v2a2 2 0 0 0 2 2h4a2 2 0 0 0 2-2v-2a2 2 0 0 0-2-2zm-4 4v-2h4v2zM45 28h4a2 2 0 0 0 2-2v-2a2 2 0 0 0-2-2h-4a2 2 0 0 0-2 2v2a2 2 0 0 0 2 2zm0-4h4v2h-4zM43 32v2a2 2 0 0 0 2 2h4a2 2 0 0 0 2-2v-2a2 2 0 0 0-2-2h-4a2 2 0 0 0-2 2zm6 2h-4v-2h4zM49 38h-4a2 2 0 0 0-2 2v2a2 2 0 0 0 2 2h4a2 2 0 0 0 2-2v-2a2 2 0 0 0-2-2zm0 4h-4v-2h4zM35 37h-2a2 2 0 0 0-2 2v2a2 2 0 0 0 2 2h2a2 2 0 0 0 2-2v-2a2 2 0 0 0-2-2zm-2 4v-2h2v2z" fill="#005daa" opacity="1" data-original="#000000" class=""></path></g></g></svg>