<svg xmlns="http://www.w3.org/2000/svg" version="1.1" xmlns:xlink="http://www.w3.org/1999/xlink" width="512" height="512" x="0" y="0" viewBox="0 0 512 512" style="enable-background:new 0 0 512 512" xml:space="preserve" class=""><g transform="matrix(0.9999999999999994,0,0,0.9999999999999994,5.684341886080802e-14,1.1368683772161603e-13)"><path d="M486.73 207.28h-40.14v-22.64c0-3.31-2.69-6-6-6h-32.96c-2.83-15.28-16.25-26.88-32.33-26.88-4.36 0-8.52.86-12.33 2.41l-3.09-3.05V21.87c0-3.31-2.69-6-6-6h-55.95c-3.31 0-6 2.69-6 6v62.4l-68.65-67.54a6 6 0 0 0-8.42 0L21.06 207.4c-1.74 1.71-2.27 4.3-1.34 6.55s3.12 3.73 5.55 3.73h26.39v183.95c0 3.31 2.69 6 6 6h200.2V491c0 3.31 2.69 6 6 6h222.87c3.31 0 6-2.69 6-6V213.28c0-3.32-2.68-6-6-6zm-90.55-22.64c0 3.31 2.69 6 6 6h32.41v28.86H316.01v-28.86h32.41c3.31 0 6-2.69 6-6 0-11.52 9.37-20.88 20.88-20.88 11.51-.01 20.88 9.36 20.88 20.88zM303.92 27.87h43.95v111.44l-43.95-43.24zm-90.85 367.76h-80.22V284.89h80.22zm44.79-182.35v182.35h-32.79V278.89c0-3.31-2.69-6-6-6h-92.22c-3.31 0-6 2.69-6 6v116.73H63.66V211.67c0-3.31-2.69-6-6-6H39.92L219.07 29.42l133.57 131.42a32.856 32.856 0 0 0-9.68 17.8H310c-3.31 0-6 2.69-6 6v22.64h-40.14c-3.31 0-6 2.68-6 6zM480.73 485H269.86V219.28H304v6.22c0 3.31 2.69 6 6 6h130.58c3.31 0 6-2.69 6-6v-6.22h34.14V485zM283.74 298.43v-44.39c0-3.31 2.69-6 6-6h28.13c3.31 0 6 2.69 6 6s-2.69 6-6 6h-22.13v32.39h32.39v-16.96c0-3.31 2.69-6 6-6s6 2.69 6 6v22.96c0 3.31-2.69 6-6 6h-44.39c-3.31 0-6-2.69-6-6zm177.11-40.55c3.31 0 6 2.69 6 6s-2.69 6-6 6h-76.84c-3.31 0-6-2.69-6-6s2.69-6 6-6zm-122.16-5.73c2.4 2.29 2.48 6.09.19 8.48l-23.11 24.18a5.969 5.969 0 0 1-4.27 1.85h-.07a5.97 5.97 0 0 1-4.24-1.76l-7.13-7.13a6 6 0 0 1 0-8.48 6 6 0 0 1 8.48 0l2.79 2.79 18.87-19.74c2.3-2.39 6.1-2.48 8.49-.19zm128.16 36.06c0 3.31-2.69 6-6 6h-96.17c-3.31 0-6-2.69-6-6s2.69-6 6-6h96.17c3.32 0 6 2.68 6 6zm-183.11 92.23v-44.39c0-3.31 2.69-6 6-6h28.13c3.31 0 6 2.69 6 6s-2.69 6-6 6h-22.13v32.39h32.39v-16.96c0-3.31 2.69-6 6-6s6 2.69 6 6v22.96c0 3.31-2.69 6-6 6h-44.39c-3.31 0-6-2.68-6-6zm183.11-34.54c0 3.31-2.69 6-6 6h-76.84c-3.31 0-6-2.69-6-6s2.69-6 6-6h76.84c3.32 0 6 2.69 6 6zm-128.16-11.73c2.4 2.29 2.48 6.09.19 8.48l-23.11 24.18a5.969 5.969 0 0 1-4.27 1.85h-.07a5.97 5.97 0 0 1-4.24-1.76l-7.13-7.13a6 6 0 0 1 0-8.48 6 6 0 0 1 8.48 0l2.79 2.79 18.87-19.74c2.3-2.4 6.1-2.48 8.49-.19zm128.16 36.05c0 3.31-2.69 6-6 6h-96.17c-3.31 0-6-2.69-6-6s2.69-6 6-6h96.17c3.32 0 6 2.69 6 6zM340.13 439.5v22.96c0 3.31-2.69 6-6 6h-44.39c-3.31 0-6-2.69-6-6v-44.39c0-3.31 2.69-6 6-6h28.13c3.31 0 6 2.69 6 6s-2.69 6-6 6h-22.13v32.39h32.39V439.5c0-3.31 2.69-6 6-6s6 2.69 6 6zm126.72-11.58c0 3.31-2.69 6-6 6h-76.84c-3.31 0-6-2.69-6-6s2.69-6 6-6h76.84c3.32 0 6 2.68 6 6zm-128.16-11.74c2.4 2.29 2.48 6.09.19 8.48l-23.11 24.18a5.969 5.969 0 0 1-4.27 1.85h-.07a5.97 5.97 0 0 1-4.24-1.76l-7.13-7.13a6 6 0 0 1 0-8.48 6 6 0 0 1 8.48 0l2.79 2.79 18.87-19.74c2.3-2.39 6.1-2.48 8.49-.19zm128.16 36.06c0 3.31-2.69 6-6 6h-96.17c-3.31 0-6-2.69-6-6s2.69-6 6-6h96.17c3.32 0 6 2.69 6 6z" fill="#005daa" opacity="1" data-original="#000000" class=""></path></g></svg>