<svg width="139" height="139" viewBox="0 0 139 139" fill="none" xmlns="http://www.w3.org/2000/svg">
<path d="M17.375 75.2917H28.9583V63.7083H17.375V75.2917ZM17.375 98.4583H28.9583V86.875H17.375V98.4583ZM17.375 52.125H28.9583V40.5417H17.375V52.125ZM40.5417 75.2917H121.625V63.7083H40.5417V75.2917ZM40.5417 98.4583H121.625V86.875H40.5417V98.4583ZM40.5417 40.5417V52.125H121.625V40.5417H40.5417ZM17.375 75.2917H28.9583V63.7083H17.375V75.2917ZM17.375 98.4583H28.9583V86.875H17.375V98.4583ZM17.375 52.125H28.9583V40.5417H17.375V52.125ZM40.5417 75.2917H121.625V63.7083H40.5417V75.2917ZM40.5417 98.4583H121.625V86.875H40.5417V98.4583ZM40.5417 40.5417V52.125H121.625V40.5417H40.5417Z" fill="#005DAA"/>
</svg>
