<svg width="19" height="11" viewBox="0 0 19 11" fill="none" xmlns="http://www.w3.org/2000/svg">
  <path
    d="M0.875 6.45834H2.79167V4.54168H0.875V6.45834ZM0.875 10.2917H2.79167V8.37501H0.875V10.2917ZM0.875 2.62501H2.79167V0.708344H0.875V2.62501ZM4.70833 6.45834H18.125V4.54168H4.70833V6.45834ZM4.70833 10.2917H18.125V8.37501H4.70833V10.2917ZM4.70833 0.708344V2.62501H18.125V0.708344H4.70833ZM0.875 6.45834H2.79167V4.54168H0.875V6.45834ZM0.875 10.2917H2.79167V8.37501H0.875V10.2917ZM0.875 2.62501H2.79167V0.708344H0.875V2.62501ZM4.70833 6.45834H18.125V4.54168H4.70833V6.45834ZM4.70833 10.2917H18.125V8.37501H4.70833V10.2917ZM4.70833 0.708344V2.62501H18.125V0.708344H4.70833Z"
    fill="#333333" />
</svg>