<svg width="15" height="17" viewBox="0 0 15 17" fill="none" xmlns="http://www.w3.org/2000/svg">
  <path
    d="M12.7778 8.65889V7.22222H11.6667V8.88889C11.6667 9.03622 11.7253 9.1775 11.8294 9.28167L13.3333 10.7856V11.6667H1.11111V10.7856L2.615 9.28167C2.71919 9.1775 2.77775 9.03622 2.77778 8.88889V6.66667C2.77623 5.886 2.98072 5.11874 3.3706 4.4424C3.76049 3.76605 4.32195 3.20457 4.99828 2.81467C5.67461 2.42477 6.44185 2.22025 7.22252 2.22177C8.00319 2.22329 8.76964 2.4308 9.44444 2.82333V1.58167C8.91561 1.34751 8.35314 1.19827 7.77778 1.13944V0H6.66667V1.13889C5.29699 1.2783 4.02764 1.92062 3.10409 2.94166C2.18054 3.96269 1.66839 5.28991 1.66667 6.66667V8.65889L0.162778 10.1628C0.0585837 10.2669 3.14652e-05 10.4082 0 10.5556V12.2222C0 12.3696 0.0585316 12.5109 0.162718 12.6151C0.266905 12.7192 0.408213 12.7778 0.555556 12.7778H4.44444V13.3333C4.44444 14.07 4.7371 14.7766 5.25804 15.2975C5.77897 15.8185 6.48551 16.1111 7.22222 16.1111C7.95894 16.1111 8.66547 15.8185 9.18641 15.2975C9.70734 14.7766 10 14.07 10 13.3333V12.7778H13.8889C14.0362 12.7778 14.1775 12.7192 14.2817 12.6151C14.3859 12.5109 14.4444 12.3696 14.4444 12.2222V10.5556C14.4444 10.4082 14.3859 10.2669 14.2817 10.1628L12.7778 8.65889ZM8.88889 13.3333C8.88889 13.7754 8.71329 14.1993 8.40073 14.5118C8.08817 14.8244 7.66425 15 7.22222 15C6.7802 15 6.35627 14.8244 6.04371 14.5118C5.73115 14.1993 5.55556 13.7754 5.55556 13.3333V12.7778H8.88889V13.3333Z"
    fill="#333333" />
  <path
    d="M12.7779 6.11112C14.0052 6.11112 15.0001 5.11619 15.0001 3.88889C15.0001 2.66159 14.0052 1.66667 12.7779 1.66667C11.5506 1.66667 10.5557 2.66159 10.5557 3.88889C10.5557 5.11619 11.5506 6.11112 12.7779 6.11112Z"
    fill="#333333" />
</svg>