<svg xmlns="http://www.w3.org/2000/svg" version="1.1" xmlns:xlink="http://www.w3.org/1999/xlink" width="512" height="512" x="0" y="0" viewBox="0 0 512 512" style="enable-background:new 0 0 512 512" xml:space="preserve" class=""><g><path d="M481.596 246.221H465.95v-4.819c0-9.8-7.986-17.773-17.803-17.773H437.29c-9.815 0-17.801 7.973-17.801 17.773v4.819h-40.705v-4.819c0-9.129-6.933-16.666-15.817-17.655V7.997a7.994 7.994 0 0 0-7.994-7.994H8.012A7.994 7.994 0 0 0 .018 7.997v496.006a7.994 7.994 0 0 0 7.994 7.994h473.584c16.755 0 30.387-12.768 30.387-28.46V274.652c-.001-15.677-13.632-28.431-30.387-28.431zm-46.119-4.82c0-.968.83-1.786 1.813-1.786h10.857c.983 0 1.814.818 1.814 1.786v31.55c0 .968-.831 1.785-1.814 1.785H437.29c-.982 0-1.813-.817-1.813-1.785zm-15.989 20.807v10.743c0 9.8 7.985 17.773 17.801 17.773h10.857c9.816 0 17.803-7.974 17.803-17.773v-10.743h15.646c7.939 0 14.398 5.583 14.398 12.444v29.281H219.561v-29.281c0-6.861 6.46-12.444 14.4-12.444h11.196v10.743c0 9.8 7.986 17.773 17.802 17.773h10.857c9.815 0 17.801-7.974 17.801-17.773v-10.743h40.705v10.743c0 9.8 7.986 17.773 17.803 17.773h10.855c9.816 0 17.803-7.974 17.803-17.773v-10.743zm-158.342 10.743v-31.55c0-.968.83-1.786 1.813-1.786h10.857c.982 0 1.813.818 1.813 1.786v31.55c0 .968-.83 1.785-1.813 1.785h-10.857c-.983 0-1.813-.817-1.813-1.785zm99.834-33.335c.983 0 1.814.818 1.814 1.786v31.55c0 .968-.831 1.785-1.814 1.785h-10.855c-.983 0-1.814-.817-1.814-1.785v-31.55c0-.968.831-1.786 1.814-1.786zM16.006 15.991h330.972v207.933c-8.318 1.49-14.655 8.751-14.655 17.478v4.819h-40.705v-4.819c0-9.8-7.985-17.773-17.801-17.773H262.96c-9.815 0-17.802 7.973-17.802 17.773v4.819h-11.196c-16.756 0-30.389 12.754-30.389 28.432v208.885c0 4.471 1.11 8.703 3.08 12.472H16.006zm465.59 480.018H233.961c-7.806 0-14.4-5.711-14.4-12.472V319.922h276.434v163.615c-.001 6.877-6.46 12.472-14.399 12.472zM301.907 344.44h-41.046a7.994 7.994 0 0 0-7.994 7.994v41.018a7.994 7.994 0 0 0 7.994 7.994h41.046a7.994 7.994 0 0 0 7.994-7.994v-41.018a7.995 7.995 0 0 0-7.994-7.994zm-7.994 41.018h-25.058v-25.029h25.058zm83.679-41.018h-41.018a7.994 7.994 0 0 0-7.994 7.994v41.018a7.994 7.994 0 0 0 7.994 7.994h41.018a7.994 7.994 0 0 0 7.994-7.994v-41.018a7.995 7.995 0 0 0-7.994-7.994zm-7.994 41.018h-25.029v-25.029h25.029zm-67.691 29.026h-41.046a7.994 7.994 0 0 0-7.994 7.994v41.018a7.994 7.994 0 0 0 7.994 7.994h41.046a7.994 7.994 0 0 0 7.994-7.994v-41.018a7.994 7.994 0 0 0-7.994-7.994zm-7.994 41.018h-25.058v-25.029h25.058zm83.679-41.018h-41.018a7.994 7.994 0 0 0-7.994 7.994v41.018a7.994 7.994 0 0 0 7.994 7.994h41.018a7.994 7.994 0 0 0 7.994-7.994v-41.018a7.994 7.994 0 0 0-7.994-7.994zm-7.994 41.018h-25.029v-25.029h25.029zm85.125-111.062h-41.045a7.994 7.994 0 0 0-7.994 7.994v41.018a7.994 7.994 0 0 0 7.994 7.994h41.045a7.994 7.994 0 0 0 7.994-7.994v-41.018a7.995 7.995 0 0 0-7.994-7.994zm-7.994 41.018h-25.057v-25.029h25.057zm7.994 29.026h-41.045a7.994 7.994 0 0 0-7.994 7.994v41.018a7.994 7.994 0 0 0 7.994 7.994h41.045a7.994 7.994 0 0 0 7.994-7.994v-41.018a7.994 7.994 0 0 0-7.994-7.994zm-7.994 41.018h-25.057v-25.029h25.057zM49.084 142.982V57.064a7.994 7.994 0 0 1 7.994-7.994h92.893a7.994 7.994 0 1 1 0 15.988H65.072v69.931h76.904v-24.328l-14.867 13.495a7.971 7.971 0 0 1-5.372 2.075 7.973 7.973 0 0 1-5.649-2.337l-18.227-18.199a7.994 7.994 0 0 1 11.297-11.314l12.841 12.821 38.585-35.023a7.994 7.994 0 0 1 10.746 11.838l-13.365 12.131v46.834a7.994 7.994 0 0 1-7.994 7.994H57.078a7.994 7.994 0 0 1-7.994-7.994zm0 155.963v-85.89a7.994 7.994 0 0 1 7.994-7.994h92.893a7.994 7.994 0 1 1 0 15.988H65.072v69.902h76.904v-24.3l-14.867 13.495a7.966 7.966 0 0 1-5.372 2.075 7.967 7.967 0 0 1-5.653-2.342l-18.227-18.227a7.993 7.993 0 0 1 0-11.305 7.993 7.993 0 0 1 11.305 0l12.841 12.841 38.581-35.019a7.994 7.994 0 0 1 10.746 11.838l-13.365 12.131v46.807a7.994 7.994 0 0 1-7.994 7.994H57.078a7.994 7.994 0 0 1-7.994-7.994zm122.794 85.764a7.992 7.992 0 0 1-.551 11.291l-13.362 12.12v46.815a7.994 7.994 0 0 1-7.994 7.994H57.078a7.994 7.994 0 0 1-7.994-7.994v-85.89a7.994 7.994 0 0 1 7.994-7.994h92.893a7.994 7.994 0 1 1 0 15.988H65.072v69.901h76.904v-24.319l-14.87 13.488a7.967 7.967 0 0 1-5.369 2.073 7.97 7.97 0 0 1-5.649-2.338l-18.227-18.199a7.993 7.993 0 0 1-.008-11.305 7.993 7.993 0 0 1 11.305-.008l12.843 12.823 38.586-34.999a7.993 7.993 0 0 1 11.291.553zm31.694-327.645a7.994 7.994 0 0 1 7.994-7.994h103.947a7.994 7.994 0 1 1 0 15.988H211.566a7.994 7.994 0 0 1-7.994-7.994zm0 42.945a7.994 7.994 0 0 1 7.994-7.994h103.947a7.994 7.994 0 1 1 0 15.988H211.566a7.994 7.994 0 0 1-7.994-7.994z" fill="#005daa" opacity="1" data-original="#000000" class=""></path></g></svg>