<svg width="20" height="15" viewBox="0 0 20 15" fill="none" xmlns="http://www.w3.org/2000/svg">
  <path
    d="M7.74984 7.74984C8.64493 7.74984 9.50335 7.39427 10.1363 6.76135C10.7692 6.12843 11.1248 5.27001 11.1248 4.37492C11.1248 3.47984 10.7692 2.62141 10.1363 1.98849C9.50335 1.35557 8.64493 1 7.74984 1C6.85476 1 5.99633 1.35557 5.36341 1.98849C4.73049 2.62141 4.37492 3.47984 4.37492 4.37492C4.37492 5.27001 4.73049 6.12843 5.36341 6.76135C5.99633 7.39427 6.85476 7.74984 7.74984 7.74984ZM9.99979 4.37492C9.99979 4.97165 9.76274 5.54393 9.3408 5.96588C8.91885 6.38782 8.34657 6.62487 7.74984 6.62487C7.15312 6.62487 6.58084 6.38782 6.15889 5.96588C5.73694 5.54393 5.4999 4.97165 5.4999 4.37492C5.4999 3.7782 5.73694 3.20592 6.15889 2.78397C6.58084 2.36202 7.15312 2.12497 7.74984 2.12497C8.34657 2.12497 8.91885 2.36202 9.3408 2.78397C9.76274 3.20592 9.99979 3.7782 9.99979 4.37492ZM14.4997 13.3747C14.4997 14.4997 13.3747 14.4997 13.3747 14.4997H2.12497C2.12497 14.4997 1 14.4997 1 13.3747C1 12.2497 2.12497 8.87482 7.74984 8.87482C13.3747 8.87482 14.4997 12.2497 14.4997 13.3747ZM13.3747 13.3702C13.3736 13.0935 13.2015 12.261 12.4387 11.4983C11.7053 10.7648 10.3249 9.99979 7.74984 9.99979C5.17365 9.99979 3.79444 10.7648 3.06095 11.4983C2.29822 12.261 2.12722 13.0935 2.12497 13.3702H13.3747Z"
    fill="#333333" stroke="#333333" stroke-width="0.2" />
  <path fill-rule="evenodd" clip-rule="evenodd"
    d="M18.8353 4.53891C18.8877 4.59116 18.9293 4.65323 18.9576 4.72157C18.986 4.7899 19.0006 4.86316 19.0006 4.93715C19.0006 5.01114 18.986 5.0844 18.9576 5.15273C18.9293 5.22107 18.8877 5.28314 18.8353 5.33539L15.4604 8.71031C15.4082 8.7627 15.3461 8.80425 15.2778 8.83261C15.2094 8.86097 15.1362 8.87556 15.0622 8.87556C14.9882 8.87556 14.9149 8.86097 14.8466 8.83261C14.7783 8.80425 14.7162 8.7627 14.6639 8.71031L12.9765 7.02285C12.8709 6.91723 12.8115 6.77398 12.8115 6.62461C12.8115 6.47524 12.8709 6.33199 12.9765 6.22637C13.0821 6.12075 13.2254 6.06141 13.3747 6.06141C13.5241 6.06141 13.6673 6.12075 13.773 6.22637L15.0622 7.51672L18.0389 4.53891C18.0911 4.48653 18.1532 4.44497 18.2215 4.41661C18.2899 4.38825 18.3631 4.37366 18.4371 4.37366C18.5111 4.37366 18.5843 4.38825 18.6527 4.41661C18.721 4.44497 18.7831 4.48653 18.8353 4.53891Z"
    fill="#333333" stroke="#333333" stroke-width="0.2" />
</svg>