<svg width="13" height="17" viewBox="0 0 13 17" fill="none" xmlns="http://www.w3.org/2000/svg">
  <path
    d="M5.67475 0.476512L5.68346 0.467744L5.69029 0.457439C5.79162 0.304547 6.07584 0.125 6.5 0.125C6.92406 0.125 7.20849 0.304496 7.31051 0.457678L7.31729 0.467847L7.3259 0.476512C7.34475 0.49547 7.36566 0.529521 7.39764 0.584216C7.39889 0.586338 7.40015 0.588505 7.40144 0.590713C7.4277 0.635693 7.46391 0.69772 7.5079 0.741973L7.54456 0.778846H7.59655H8.45C9.09527 0.778846 9.625 1.31065 9.625 1.96154V2.08654H9.75H11.05C12.0853 2.08654 12.875 2.87988 12.875 3.92308V15.0385C12.875 16.0817 12.0853 16.875 11.05 16.875H1.95C0.91473 16.875 0.125 16.0817 0.125 15.0385V3.92308C0.125 2.87988 0.91473 2.08654 1.95 2.08654H3.25H3.375V1.96154C3.375 1.31065 3.90473 0.778846 4.55 0.778846H5.40345H5.45544L5.4921 0.741973C5.53598 0.697831 5.57231 0.635942 5.59873 0.59094C5.60002 0.588743 5.60128 0.586588 5.60253 0.584476C5.63466 0.529821 5.65577 0.4956 5.67475 0.476512ZM4.55 1.83654H4.425V1.96154V3.26923V3.39423H4.55H8.45H8.575V3.26923V1.96154V1.83654H8.45H4.55ZM1.95 3.79808H1.825V3.92308V15.0385V15.1635H1.95H11.05H11.175V15.0385V3.92308V3.79808H11.05H9.5472H9.46986L9.43534 3.86729C9.26246 4.21393 8.86136 4.45192 8.45 4.45192H4.55C4.1386 4.45192 3.7376 4.21391 3.56538 3.86744L3.53091 3.79808H3.45345H1.95ZM8.81595 7.11331L8.81622 7.11331C8.86448 7.1132 8.91136 7.1222 8.95443 7.1401C8.99827 7.15832 9.03816 7.1851 9.07177 7.21894L9.07136 7.21935L9.08062 7.22704L9.54376 7.61139C9.697 7.76908 9.67078 7.9532 9.60025 8.02414L9.6002 8.02409L9.59736 8.02715L6.08492 11.8048C5.852 12.038 5.54109 12.0776 5.34975 11.8851L5.34979 11.8851L5.34714 11.8826L3.53884 10.1669L3.53118 10.1596L3.52242 10.1537C3.46735 10.1168 3.43155 10.0464 3.43155 9.95513C3.43155 9.8643 3.46811 9.7656 3.54145 9.69182L3.98865 9.24197L3.99736 9.23321L4.00419 9.2229C4.041 9.16737 4.11064 9.13173 4.20062 9.13173C4.29027 9.13173 4.38804 9.16823 4.46135 9.24197L4.46131 9.24201L4.46391 9.24448L5.56111 10.2867L5.6525 10.3735L5.73855 10.2814L8.6018 7.21617L8.6089 7.20857L8.61465 7.1999C8.64901 7.14805 8.72002 7.11331 8.81595 7.11331Z"
    fill="black" stroke="white" stroke-width="0.25" />
</svg>