<svg width="102" height="102" viewBox="0 0 102 102" fill="none" xmlns="http://www.w3.org/2000/svg">
<g clip-path="url(#clip0_264_8695)">
<path d="M36.0399 53.8334C35.5012 53.3651 34.8056 53.1173 34.0922 53.1397C33.3788 53.1621 32.7001 53.4529 32.1918 53.954C31.6835 54.4552 31.3831 55.1297 31.3506 55.8427C31.3181 56.5557 31.5559 57.2547 32.0165 57.8L47.2032 72.9867L75.6782 44.5117C76.1424 43.9697 76.3849 43.2724 76.3574 42.5594C76.3298 41.8463 76.0342 41.1699 75.5296 40.6653C75.025 40.1607 74.3486 39.865 73.6355 39.8375C72.9224 39.81 72.2252 40.0525 71.6832 40.5167L47.2032 64.9967L36.0399 53.8334Z" fill="#005DAA"/>
<path d="M65.5352 25.5H34.0002V20.7683C34.0002 20.6455 34.0243 20.524 34.0713 20.4105C34.1183 20.2971 34.1872 20.194 34.274 20.1072C34.3608 20.0204 34.4639 19.9515 34.5774 19.9045C34.6908 19.8575 34.8124 19.8333 34.9352 19.8333H45.3335V17C45.3335 15.4971 45.9305 14.0558 46.9932 12.9931C48.0559 11.9304 49.4973 11.3333 51.0002 11.3333C52.5031 11.3333 53.9444 11.9304 55.0071 12.9931C56.0698 14.0558 56.6668 15.4971 56.6668 17V19.8333H63.9485C63.8194 18.8943 63.7532 17.9478 63.7502 17C63.7532 16.0522 63.8194 15.1056 63.9485 14.1667H61.9652C61.341 11.7288 59.9232 9.56805 57.9353 8.02502C55.9474 6.48198 53.5025 5.64444 50.986 5.64444C48.4695 5.64444 46.0246 6.48198 44.0367 8.02502C42.0488 9.56805 40.631 11.7288 40.0068 14.1667H34.9352C33.1866 14.1741 31.5118 14.872 30.2753 16.1085C29.0389 17.3449 28.341 19.0198 28.3335 20.7683V31.1667H69.1902C67.678 29.4844 66.4441 27.5714 65.5352 25.5Z" fill="#005DAA"/>
<path d="M84.9998 38.25C84.052 38.247 83.1055 38.1807 82.1665 38.0517V90.6667H19.8332V19.8333H25.4998V14.1667H19.8332C19.1393 14.0663 18.432 14.1142 17.758 14.3073C17.0841 14.5004 16.4587 14.8342 15.9232 15.2867C15.3877 15.7392 14.9542 16.3001 14.6514 16.9324C14.3486 17.5647 14.1833 18.2541 14.1665 18.955V91.545C14.1702 92.1775 14.2985 92.8031 14.544 93.3861C14.7895 93.9691 15.1474 94.498 15.5973 94.9426C16.0472 95.3873 16.5803 95.7389 17.1661 95.9776C17.7519 96.2162 18.379 96.3371 19.0115 96.3333H82.9882C83.6207 96.3371 84.2478 96.2162 84.8336 95.9776C85.4194 95.7389 85.9525 95.3873 86.4024 94.9426C86.8523 94.498 87.2102 93.9691 87.4557 93.3861C87.7012 92.8031 87.8295 92.1775 87.8332 91.545V38.0517C86.8942 38.1807 85.9476 38.247 84.9998 38.25Z" fill="#005DAA"/>
<path d="M85.0002 31.1667C92.8242 31.1667 99.1668 24.824 99.1668 17C99.1668 9.17598 92.8242 2.83334 85.0002 2.83334C77.1761 2.83334 70.8335 9.17598 70.8335 17C70.8335 24.824 77.1761 31.1667 85.0002 31.1667Z" fill="#005DAA"/>
</g>
<defs>
<clipPath id="clip0_264_8695">
<rect width="102" height="102" fill="white"/>
</clipPath>
</defs>
</svg>
