<svg xmlns="http://www.w3.org/2000/svg" version="1.1" xmlns:xlink="http://www.w3.org/1999/xlink" width="512" height="512" x="0" y="0" viewBox="0 0 488.928 488.928" style="enable-background:new 0 0 512 512" xml:space="preserve"><g><path d="m484.312 401.568-115.8-54.04c-.16-.184-.36-.336-.544-.504-.2-.184-.4-.36-.616-.528-.144-.112-.264-.256-.416-.36-.264-.176-.552-.272-.832-.408-.152-.08-.272-.192-.424-.264l-57.368-24.584-91.288-39.128 25.208-8.4 61.24 25.344h.008l167.992 69.512a7.92 7.92 0 0 0 3.056.608c1.56 0 3.112-.456 4.448-1.344a8.023 8.023 0 0 0 3.552-6.656v-256c0-3.24-1.952-6.16-4.936-7.392l-64-26.488h-.008L245.592 1.424A7.79 7.79 0 0 0 243.76.92c-.016 0-.024-.008-.04-.008a8.044 8.044 0 0 0-3.568.304c-.048.016-.104 0-.152.016l-240 80 5.064 15.176 229.464-76.496v239.136l-32 10.664v-68.896c0-2.536-1.2-4.92-3.232-6.432a8.006 8.006 0 0 0-7.096-1.224l-184 56a8.005 8.005 0 0 0-5.672 7.656v128a8 8 0 0 0 4.544 7.216l85.104 40.704-36.96 16.8c-2.84 1.28-4.664 4.104-4.688 7.216s1.76 5.96 4.576 7.296l48.04 22.76 6.84-14.464-32.464-15.376 33.488-15.216 80.056 38.288c.232.112.48.152.712.232.264.096.52.192.792.264.464.12.936.176 1.408.208.192.008.368.072.552.072.072 0 .136-.024.2-.032.496-.016.976-.104 1.456-.208.208-.048.424-.056.632-.12.208-.064.408-.168.616-.248.08-.032.16-.016.24-.048l168-72a7.965 7.965 0 0 0 4.856-7.344v-34.688l91.272 42.6-142.584 64.808 6.624 14.56 158.4-72a7.998 7.998 0 0 0 .072-14.528zm-65.784-112.752V90.304l48 19.856v238.68l-48-19.864v-40.16zm-16 33.544-74.272-30.736 41.704-10.416 32.568 13.024v28.128zm-56-51.792v-63.504l16-4v63.504l-16 4zm56 6.432-24-9.6v-62.768l12 4.8 12 4.8V277zm0-80-12-4.8-12-4.8v-14.768l24 9.6V197zm-88-149.736 88 36.416V165l-24-9.6v-26.584h-16v25.752l-48 12V47.264zm0 135.8 48-12v15.504l-48 12v-15.504zm0 32 16-4v63.504l-16 4v-63.504zm-64-194.28 48 19.864v238.68l-48-19.864V20.784zM194.064 289.32l90.976 38.992-142.912 62.576-109.584-52.416 12.304-3.744 48.008-14.608 20.448-6.224 11.552-3.512h.008l48-14.608 21.2-6.456zM50.528 316.28v-21.696l32-10.664v22.624l-32 9.736zm80-24.344v-21.352l32-10.664v22.272l-13.336 4.056-18.664 5.688zm-112-29.192 168-51.128v63.28l-8 2.432v-28.512a7.984 7.984 0 0 0-3.32-6.488 8.008 8.008 0 0 0-7.208-1.104l-48 16a8 8 0 0 0-5.472 7.592V296.8l-16 4.872v-28.856a7.995 7.995 0 0 0-3.32-6.488A8.025 8.025 0 0 0 88 265.224l-48 16a8 8 0 0 0-5.472 7.592v32.336l-16 4.864v-63.272zm168 197.376-71.968-34.424h-.008l-96.024-45.92v-30.264l168 80.344v30.264zm8.184-44.088L161.184 400l144.008-63.048 37.024 15.864-147.504 63.216zm159.816-20.488-152 65.144v-30.592l152-65.144v30.592z" fill="#005daa" opacity="1" data-original="#005daa"></path><path d="M175.208 66.328c-2.104-1.504-4.784-1.92-7.208-1.104l-144 48a8 8 0 0 0-5.472 7.592v96a7.995 7.995 0 0 0 3.32 6.488 7.982 7.982 0 0 0 4.68 1.512c.848 0 1.704-.136 2.528-.408l144-48a8 8 0 0 0 5.472-7.592v-96a7.995 7.995 0 0 0-3.32-6.488zm-12.68 96.728-128 42.664v-79.136l128-42.664v79.136z" fill="#005daa" opacity="1" data-original="#005daa"></path><path d="m132.864 115.152-28.504 28.512-19.304-6.44a8.049 8.049 0 0 0-6.968.936l-24 16 8.872 13.312 20.744-13.832 20.288 6.76c2.872.96 6.048.2 8.184-1.936l32-32-11.312-11.312z" fill="#005daa" opacity="1" data-original="#005daa"></path></g></svg>