<svg width="18" height="18" viewBox="0 0 18 18" fill="none" xmlns="http://www.w3.org/2000/svg">
  <path
    d="M17.833 12.7705L12.9375 17.6748L10.5732 15.3018L11.3643 14.5107L12.9375 16.0752L17.042 11.9795L17.833 12.7705ZM9 5.625H5.625V4.5H9V5.625ZM9 7.875H5.625V6.75H9V7.875ZM5.625 9H9V10.125H5.625V9ZM4.5 5.625H3.375V4.5H4.5V5.625ZM4.5 7.875H3.375V6.75H4.5V7.875ZM3.375 9H4.5V10.125H3.375V9ZM10.125 5.625V1.125H2.25V16.875H10.125V18H1.125V0H10.9248L15.75 4.8252V11.25L14.625 12.375V5.625H10.125ZM11.25 4.5H13.8252L11.25 1.9248V4.5Z"
    fill="#333333" />
</svg>