<svg width="90" height="90" viewBox="0 0 90 90" fill="none" xmlns="http://www.w3.org/2000/svg">
<path d="M89.165 63.8525L64.6875 88.374L52.8662 76.5088L56.8213 72.5537L64.6875 80.376L85.21 59.8975L89.165 63.8525ZM45 28.125H28.125V22.5H45V28.125ZM45 39.375H28.125V33.75H45V39.375ZM28.125 45H45V50.625H28.125V45ZM22.5 28.125H16.875V22.5H22.5V28.125ZM22.5 39.375H16.875V33.75H22.5V39.375ZM16.875 45H22.5V50.625H16.875V45ZM50.625 28.125V5.625H11.25V84.375H50.625V90H5.625V0H54.624L78.75 24.126V56.25L73.125 61.875V28.125H50.625ZM56.25 22.5H69.126L56.25 9.62402V22.5Z" fill="#005DAA"/>
</svg>
