<svg width="73" height="75" viewBox="0 0 73 75" fill="none" xmlns="http://www.w3.org/2000/svg">
<path d="M43.7125 1C44.2634 1.00002 44.8 1.17522 45.2452 1.50038C45.6903 1.82553 46.021 2.28386 46.1896 2.80936L49.0517 11.7206C50.2537 12.3098 51.4038 12.972 52.5018 13.7176L61.6398 11.7466C62.1785 11.6314 62.7399 11.6905 63.243 11.9153C63.7462 12.1402 64.1651 12.5194 64.4394 12.9981L71.6519 25.5071C71.9274 25.9856 72.044 26.5393 71.9851 27.0885C71.9262 27.6376 71.6947 28.1539 71.3241 28.5627L65.0535 35.4977C65.1448 36.8275 65.1448 38.162 65.0535 39.4919L71.3241 46.4373C71.6947 46.8461 71.9262 47.3624 71.9851 47.9115C72.044 48.4607 71.9274 49.0144 71.6519 49.4929L64.4394 62.0071C64.1643 62.4849 63.7451 62.8629 63.242 63.0869C62.739 63.3108 62.178 63.3691 61.6398 63.2534L52.5018 61.2824C51.409 62.0228 50.2537 62.6902 49.0569 63.2794L46.1896 72.1906C46.021 72.7161 45.6903 73.1745 45.2452 73.4996C44.8 73.8248 44.2634 74 43.7125 74H29.2875C28.7366 74 28.2 73.8248 27.7548 73.4996C27.3097 73.1745 26.979 72.7161 26.8104 72.1906L23.9535 63.2846C22.7547 62.6972 21.5983 62.0264 20.493 61.2771L11.3602 63.2534C10.8215 63.3686 10.2601 63.3096 9.75695 63.0847C9.25382 62.8598 8.83492 62.4807 8.56058 62.0019L1.34806 49.4929C1.07265 49.0144 0.955989 48.4607 1.01491 47.9115C1.07383 47.3624 1.30529 46.8461 1.6759 46.4373L7.94653 39.4919C7.8557 38.1655 7.8557 36.8345 7.94653 35.5081L1.6759 28.5627C1.30529 28.1539 1.07383 27.6376 1.01491 27.0885C0.955989 26.5393 1.07265 25.9856 1.34806 25.5071L8.56058 12.9929C8.83568 12.5151 9.25491 12.1371 9.75797 11.9131C10.261 11.6892 10.822 11.6309 11.3602 11.7466L20.493 13.7229C21.5962 12.9772 22.7515 12.3046 23.9535 11.7154L26.8157 2.80936C26.9837 2.28555 27.3128 1.82844 27.7558 1.50344C28.1989 1.17844 28.7332 1.00222 29.2823 1H43.7073H43.7125ZM41.8079 6.21429H31.1921L28.2363 15.4279L26.2432 16.403C25.2634 16.8834 24.3176 17.4305 23.4123 18.0403L21.5702 19.2917L12.12 17.2477L6.81209 26.4666L13.2909 33.6519L13.1348 35.8627C13.06 36.953 13.06 38.0471 13.1348 39.1373L13.2909 41.3481L6.80169 48.5334L12.1148 57.7523L21.565 55.7135L23.4071 56.9597C24.3124 57.5695 25.2582 58.1166 26.238 58.597L28.2311 59.5721L31.1921 68.7857H41.8183L44.7845 59.5669L46.7724 58.597C47.7511 58.1177 48.6953 57.5706 49.5981 56.9597L51.435 55.7135L60.8904 57.7523L66.1983 48.5334L59.7143 41.3481L59.8704 39.1373C59.9455 38.0453 59.9455 36.9495 59.8704 35.8575L59.7143 33.6466L66.2035 26.4666L60.8904 17.2477L51.435 19.2813L49.5981 18.0403C48.6954 17.4292 47.7512 16.8822 46.7724 16.403L44.7845 15.4331L41.8131 6.21429H41.8079ZM36.5 21.8571C40.6404 21.8571 44.6113 23.5052 47.539 26.4388C50.4667 29.3724 52.1115 33.3513 52.1115 37.5C52.1115 41.6487 50.4667 45.6276 47.539 48.5612C44.6113 51.4948 40.6404 53.1429 36.5 53.1429C32.3596 53.1429 28.3887 51.4948 25.461 48.5612C22.5333 45.6276 20.8885 41.6487 20.8885 37.5C20.8885 33.3513 22.5333 29.3724 25.461 26.4388C28.3887 23.5052 32.3596 21.8571 36.5 21.8571ZM36.5 27.0714C33.7397 27.0714 31.0925 28.1702 29.1407 30.1259C27.1888 32.0816 26.0923 34.7342 26.0923 37.5C26.0923 40.2658 27.1888 42.9184 29.1407 44.8741C31.0925 46.8298 33.7397 47.9286 36.5 47.9286C39.2603 47.9286 41.9075 46.8298 43.8593 44.8741C45.8112 42.9184 46.9077 40.2658 46.9077 37.5C46.9077 34.7342 45.8112 32.0816 43.8593 30.1259C41.9075 28.1702 39.2603 27.0714 36.5 27.0714Z" fill="#005DAA" stroke="#005DAA" stroke-width="0.5"/>
</svg>
