<svg width="99" height="99" viewBox="0 0 99 99" fill="none" xmlns="http://www.w3.org/2000/svg">
  <g clip-path="url(#clip0_264_8701)">
    <path
      d="M51.5625 49.2938C53.5563 47.0938 55.0866 44.5844 56.1536 41.7656C57.2206 38.9469 57.7528 36.025 57.75 33C57.75 29.975 57.2165 27.0531 56.1495 24.2344C55.0825 21.4156 53.5535 18.9063 51.5625 16.7063C55.6875 17.2563 59.125 19.0781 61.875 22.1719C64.625 25.2656 66 28.875 66 33C66 37.125 64.625 40.7344 61.875 43.8281C59.125 46.9219 55.6875 48.7437 51.5625 49.2938ZM72.2906 82.5C72.9094 82.0188 73.3906 81.4165 73.7344 80.6933C74.0781 79.97 74.25 79.1629 74.25 78.2719V70.125C74.25 67.65 73.7 65.2946 72.6 63.0589C71.5 60.8231 70.0563 58.8473 68.2688 57.1313C71.775 58.3688 75.0241 59.9679 78.0161 61.9286C81.0081 63.8894 82.5028 66.6215 82.5 70.125V78.375C82.5 79.5438 82.104 80.5241 81.312 81.3161C80.52 82.1081 79.541 82.5027 78.375 82.5H72.2906ZM86.625 53.625C85.4563 53.625 84.4759 53.229 83.6839 52.437C82.8919 51.645 82.4973 50.666 82.5 49.5V45.375H78.375C77.2063 45.375 76.2259 44.979 75.4339 44.187C74.6419 43.395 74.2473 42.416 74.25 41.25C74.25 40.0812 74.646 39.1009 75.438 38.3089C76.23 37.5169 77.209 37.1222 78.375 37.125H82.5V33C82.5 31.8313 82.896 30.8509 83.688 30.0589C84.48 29.2669 85.459 28.8722 86.625 28.875C87.7938 28.875 88.7741 29.271 89.5661 30.063C90.3581 30.855 90.7528 31.834 90.75 33V37.125H94.875C96.0438 37.125 97.0241 37.521 97.8161 38.313C98.6081 39.105 99.0028 40.084 99 41.25C99 42.4188 98.604 43.3991 97.812 44.1911C97.02 44.9831 96.041 45.3778 94.875 45.375H90.75V49.5C90.75 50.6688 90.354 51.6491 89.562 52.4411C88.77 53.2331 87.791 53.6278 86.625 53.625ZM33 49.5C28.4625 49.5 24.5781 47.8844 21.3469 44.6531C18.1156 41.4219 16.5 37.5375 16.5 33C16.5 28.4625 18.1156 24.5781 21.3469 21.3469C24.5781 18.1156 28.4625 16.5 33 16.5C37.5375 16.5 41.4219 18.1156 44.6531 21.3469C47.8844 24.5781 49.5 28.4625 49.5 33C49.5 37.5375 47.8844 41.4219 44.6531 44.6531C41.4219 47.8844 37.5375 49.5 33 49.5ZM4.12501 82.5C2.95626 82.5 1.97589 82.104 1.18389 81.312C0.391889 80.52 -0.00273573 79.541 1.42734e-05 78.375V70.95C1.42734e-05 68.6125 0.602264 66.4634 1.80676 64.5026C3.01126 62.5419 4.60901 61.0473 6.60001 60.0187C10.8625 57.8875 15.1938 56.2884 19.5938 55.2214C23.9938 54.1544 28.4625 53.6222 33 53.625C37.5375 53.625 42.0063 54.1585 46.4063 55.2255C50.8063 56.2925 55.1375 57.8903 59.4 60.0187C61.3938 61.05 62.9929 62.546 64.1974 64.5067C65.4019 66.4675 66.0028 68.6153 66 70.95V78.375C66 79.5438 65.604 80.5241 64.812 81.3161C64.02 82.1081 63.041 82.5027 61.875 82.5H4.12501ZM33 41.25C35.2688 41.25 37.2116 40.4415 38.8286 38.8245C40.4456 37.2075 41.2528 35.266 41.25 33C41.25 30.7312 40.4415 28.7884 38.8245 27.1714C37.2075 25.5544 35.266 24.7472 33 24.75C30.7313 24.75 28.7884 25.5585 27.1714 27.1755C25.5544 28.7925 24.7473 30.734 24.75 33C24.75 35.2687 25.5585 37.2116 27.1755 38.8286C28.7925 40.4456 30.734 41.2528 33 41.25ZM8.25001 74.25H57.75V70.95C57.75 70.1938 57.5603 69.5063 57.1808 68.8875C56.8013 68.2688 56.3035 67.7875 55.6875 67.4438C51.975 65.5875 48.2281 64.196 44.4469 63.2693C40.6656 62.3425 36.85 61.8778 33 61.875C29.15 61.875 25.3344 62.3398 21.5531 63.2693C17.7719 64.1987 14.025 65.5903 10.3125 67.4438C9.69376 67.7875 9.19464 68.2688 8.81514 68.8875C8.43564 69.5063 8.24726 70.1938 8.25001 70.95V74.25Z"
      fill="#005DAA" />
  </g>
  <defs>
    <clipPath id="clip0_264_8701">
      <rect width="99" height="99" fill="white" />
    </clipPath>
  </defs>
</svg>