<svg width="16" height="16" viewBox="0 0 16 16" fill="none" xmlns="http://www.w3.org/2000/svg">
  <g clip-path="url(#clip0_759_235)">
    <path
      d="M8.33334 7.96667C8.65556 7.61112 8.90289 7.20556 9.07534 6.75001C9.24778 6.29445 9.33378 5.82223 9.33334 5.33334C9.33334 4.84445 9.24711 4.37223 9.07467 3.91667C8.90223 3.46112 8.65511 3.05556 8.33334 2.70001C9 2.78889 9.55556 3.08334 10 3.58334C10.4444 4.08334 10.6667 4.66667 10.6667 5.33334C10.6667 6.00001 10.4444 6.58334 10 7.08334C9.55556 7.58334 9 7.87778 8.33334 7.96667ZM11.6833 13.3333C11.7833 13.2556 11.8611 13.1582 11.9167 13.0413C11.9722 12.9244 12 12.794 12 12.65V11.3333C12 10.9333 11.9111 10.5527 11.7333 10.1913C11.5556 9.83001 11.3222 9.51067 11.0333 9.23334C11.6 9.43334 12.1251 9.69178 12.6087 10.0087C13.0922 10.3256 13.3338 10.7671 13.3333 11.3333V12.6667C13.3333 12.8556 13.2693 13.014 13.1413 13.142C13.0133 13.27 12.8551 13.3338 12.6667 13.3333H11.6833ZM14 8.66667C13.8111 8.66667 13.6527 8.60267 13.5247 8.47467C13.3967 8.34667 13.3329 8.18845 13.3333 8.00001V7.33334H12.6667C12.4778 7.33334 12.3193 7.26934 12.1913 7.14134C12.0633 7.01334 11.9996 6.85512 12 6.66667C12 6.47778 12.064 6.31934 12.192 6.19134C12.32 6.06334 12.4782 5.99956 12.6667 6.00001H13.3333V5.33334C13.3333 5.14445 13.3973 4.98601 13.5253 4.85801C13.6533 4.73001 13.8116 4.66623 14 4.66667C14.1889 4.66667 14.3473 4.73067 14.4753 4.85867C14.6033 4.98667 14.6671 5.14489 14.6667 5.33334V6.00001H15.3333C15.5222 6.00001 15.6807 6.06401 15.8087 6.19201C15.9367 6.32001 16.0004 6.47823 16 6.66667C16 6.85556 15.936 7.01401 15.808 7.14201C15.68 7.27001 15.5218 7.33378 15.3333 7.33334H14.6667V8.00001C14.6667 8.18889 14.6027 8.34734 14.4747 8.47534C14.3467 8.60334 14.1884 8.66712 14 8.66667ZM5.33334 8.00001C4.6 8.00001 3.97222 7.73889 3.45 7.21667C2.92778 6.69445 2.66667 6.06667 2.66667 5.33334C2.66667 4.60001 2.92778 3.97223 3.45 3.45001C3.97222 2.92778 4.6 2.66667 5.33334 2.66667C6.06667 2.66667 6.69445 2.92778 7.21667 3.45001C7.73889 3.97223 8 4.60001 8 5.33334C8 6.06667 7.73889 6.69445 7.21667 7.21667C6.69445 7.73889 6.06667 8.00001 5.33334 8.00001ZM0.666669 13.3333C0.47778 13.3333 0.319336 13.2693 0.191336 13.1413C0.0633356 13.0133 -0.000442138 12.8551 2.30681e-06 12.6667V11.4667C2.30681e-06 11.0889 0.0973356 10.7416 0.292002 10.4247C0.486669 10.1078 0.744891 9.86623 1.06667 9.70001C1.75556 9.35556 2.45556 9.09712 3.16667 8.92467C3.87778 8.75223 4.6 8.66623 5.33334 8.66667C6.06667 8.66667 6.78889 8.75289 7.5 8.92534C8.21111 9.09778 8.91111 9.35601 9.6 9.70001C9.92222 9.86667 10.1807 10.1084 10.3753 10.4253C10.57 10.7422 10.6671 11.0893 10.6667 11.4667V12.6667C10.6667 12.8556 10.6027 13.014 10.4747 13.142C10.3467 13.27 10.1884 13.3338 10 13.3333H0.666669ZM5.33334 6.66667C5.7 6.66667 6.014 6.53601 6.27534 6.27467C6.53667 6.01334 6.66711 5.69956 6.66667 5.33334C6.66667 4.96667 6.536 4.65267 6.27467 4.39134C6.01334 4.13001 5.69956 3.99956 5.33334 4.00001C4.96667 4.00001 4.65267 4.13067 4.39134 4.392C4.13 4.65334 3.99956 4.96712 4 5.33334C4 5.70001 4.13067 6.01401 4.392 6.27534C4.65334 6.53667 4.96711 6.66712 5.33334 6.66667ZM1.33334 12H9.33334V11.4667C9.33334 11.3444 9.30267 11.2333 9.24134 11.1333C9.18 11.0333 9.09956 10.9556 9 10.9C8.4 10.6 7.79445 10.3751 7.18334 10.2253C6.57222 10.0756 5.95556 10.0004 5.33334 10C4.71111 10 4.09445 10.0751 3.48334 10.2253C2.87222 10.3756 2.26667 10.6005 1.66667 10.9C1.56667 10.9556 1.486 11.0333 1.42467 11.1333C1.36334 11.2333 1.33289 11.3444 1.33334 11.4667V12Z"
      fill="#333333" />
  </g>
  <defs>
    <clipPath id="clip0_759_235">
      <rect width="16" height="16" fill="white" />
    </clipPath>
  </defs>
</svg>