<svg id="Layer_1" height="512" viewBox="0 0 64 64" width="512" xmlns="http://www.w3.org/2000/svg" data-name="Layer 1"><path d="m61 48.13h-1a.89.89 0 0 1 -.62-1.5l.72-.63a1 1 0 0 0 0-1.41l-2.65-2.69-.1-.07a26.44 26.44 0 0 0 .65-5.83 26 26 0 0 0 -22-25.69v-2.31h3.65a2.36 2.36 0 0 0 2.35-2.35v-1.3a2.36 2.36 0 0 0 -2.35-2.35h-15.3a2.36 2.36 0 0 0 -2.35 2.35v1.3a2.36 2.36 0 0 0 2.35 2.35h3.65v2.31a26 26 0 1 0 15.67 48.91l.88.88a1 1 0 0 0 1.41 0l.67-.67a.89.89 0 0 1 1.5.62v1a1 1 0 0 0 1 1h3.75a1 1 0 0 0 1-1v-1a.88.88 0 0 1 1.49-.62l.67.67a1 1 0 0 0 1.41 0l2.65-2.65a1 1 0 0 0 0-1.41l-.67-.67a.88.88 0 0 1 .62-1.49h1a1 1 0 0 0 1-1v-3.75a1 1 0 0 0 -1.05-1zm-36.65-42.13a.35.35 0 0 1 -.35-.35v-1.3a.35.35 0 0 1 .35-.35h15.3a.35.35 0 0 1 .35.35v1.3a.35.35 0 0 1 -.35.35zm9.65 2v2.08c-.66-.08-1.33-.08-2-.08s-1.34 0-2 .08v-2.08zm8.57 47.37-.67.63a1 1 0 0 0 0 1.41l.28.28a24 24 0 1 1 12.82-14.91.91.91 0 0 1 -.6 0 .84.84 0 0 1 -.54-.8v-.98a1 1 0 0 0 -1-1h-.26a21.51 21.51 0 0 0 .4-4 21.05 21.05 0 1 0 -10.44 18.13.81.81 0 0 1 .19.29.84.84 0 0 1 -.18.95zm-.67-9.37.67.67a.89.89 0 0 1 -.62 1.5h-.95a1 1 0 0 0 -1 1v3.75a1.2 1.2 0 0 0 .06.32 19 19 0 1 1 10.94-17.24 19.14 19.14 0 0 1 -.43 4h-1.44a1 1 0 0 0 -1 1v1a.89.89 0 0 1 -1.5.62l-.63-.72a1 1 0 0 0 -1.41 0l-2.69 2.65a1 1 0 0 0 0 1.45zm18.1 5.88a2.87 2.87 0 0 0 -2 4.86l-1.25 1.26a2.84 2.84 0 0 0 -3.1-.58 2.81 2.81 0 0 0 -1.77 2.58h-1.75a2.89 2.89 0 0 0 -4.88-2l-1.25-1.26a2.87 2.87 0 0 0 -2-4.86v-1.76a2.87 2.87 0 0 0 2-4.86l1.25-1.26a2.89 2.89 0 0 0 4.88-2h1.75a2.81 2.81 0 0 0 1.77 2.6 2.84 2.84 0 0 0 3.1-.58l1.25 1.24a2.87 2.87 0 0 0 2 4.86z"/><path d="m51 44.67a6.33 6.33 0 1 0 6.33 6.33 6.34 6.34 0 0 0 -6.33-6.33zm0 10.66a4.33 4.33 0 1 1 4.33-4.33 4.33 4.33 0 0 1 -4.33 4.33z"/><path d="m31 18h2v4h-2z"/><path d="m46 35h4v2h-4z"/><path d="m31 50h2v4h-2z"/><path d="m14 35h4v2h-4z"/><path d="m33.44 33.39a3 3 0 0 0 -1.44-.39 3 3 0 0 0 -2.5 1.35l-5.26-1.35-.48 2 5.24 1.29a3 3 0 0 0 6-.29 3 3 0 0 0 -.22-1.13l6.89-6.12-1.34-1.5zm-1.44 3.61a1 1 0 1 1 1-1 1 1 0 0 1 -1 1z"/></svg>