<svg width="49" height="49" viewBox="0 0 49 49" fill="none" xmlns="http://www.w3.org/2000/svg">
<path d="M39.8947 20.9473V16.2105C39.8947 14.9542 39.3956 13.7494 38.5073 12.861C37.619 11.9727 36.4141 11.4736 35.1578 11.4736H16.2105C14.9542 11.4736 13.7494 11.9727 12.861 12.861C11.9727 13.7494 11.4736 14.9542 11.4736 16.2105V35.1578C11.4736 36.4141 11.9727 37.619 12.861 38.5073C13.7494 39.3956 14.9542 39.8947 16.2105 39.8947H20.9473" stroke="#005DAA" stroke-width="3" stroke-linecap="round" stroke-linejoin="round"/>
<path d="M2 2V2.02368M11.4737 2V2.02368M20.9474 2V2.02368M30.4211 2V2.02368M2 11.4737V11.4974M2 20.9474V20.9711M2 30.4211V30.4447M25.6842 25.6842L47 32.7895L37.5263 37.5263L32.7895 47L25.6842 25.6842Z" stroke="#005DAA" stroke-width="3" stroke-linecap="round" stroke-linejoin="round"/>
</svg>
