<svg id="Capa_1" enable-background="new 0 0 512 512" 
height="512" viewBox="0 0 512 512" width="512" fill="#005DAA"
    xmlns="http://www.w3.org/2000/svg">
    <g>
        <path
            d="m353.76 149.76v-54.6c0-4.15-3.365-7.515-7.515-7.515s-7.515 3.365-7.515 7.515v54.605c-10.753 3.242-18.609 13.239-18.609 25.042 0 5.404 1.646 10.43 4.463 14.603l-20.61 23.136c-2.506 2.813-2.509 7.194.005 10.004 2.951 3.298 8.272 3.299 11.217-.007l21.017-23.594c3.093 1.293 6.484 2.01 10.04 2.01 14.41 0 26.133-11.732 26.133-26.152.002-11.81-7.863-21.811-18.626-25.047zm-7.505 36.17c-6.123 0-11.104-4.99-11.104-11.123s4.981-11.122 11.104-11.122 11.104 4.989 11.104 11.122-4.981 11.123-11.104 11.123z" />
        <path
            d="m346.548 9.031c-72.775 0-134.725 47.277-156.812 112.759-3.702.024-7.385 1.22-10.409 3.57l-14.843 11.533c-2.488-1.16-5.025-2.214-7.597-3.155l-2.349-18.664c-1.077-8.558-8.39-15.011-17.011-15.011h-27.18c-8.62 0-15.933 6.453-17.01 15.011l-2.349 18.664c-2.571.941-5.109 1.995-7.596 3.155l-14.843-11.533c-6.812-5.293-16.546-4.681-22.642 1.421l-19.22 19.239c-6.091 6.097-6.702 15.832-1.419 22.643l11.527 14.866c-1.162 2.494-2.216 5.038-3.157 7.616l-18.638 2.352c-8.551 1.078-15 8.395-15 17.02v27.208c0 8.624 6.449 15.941 15 17.02l18.638 2.351c.941 2.579 1.996 5.122 3.157 7.616l-11.527 14.866c-5.282 6.811-4.672 16.546 1.419 22.643l19.22 19.239c6.097 6.103 15.831 6.714 22.641 1.421l14.843-11.533c2.488 1.16 5.025 2.214 7.596 3.155l2.349 18.664c1.077 8.558 8.39 15.011 17.01 15.011h16.904c-.055.578-.086 1.162-.086 1.753v30.423c0 9.197 6.877 17 15.996 18.15l21.379 2.697c1.15 3.202 2.458 6.357 3.914 9.443l-13.222 17.052c-5.633 7.264-4.982 17.645 1.514 24.147l21.49 21.512c6.501 6.507 16.881 7.158 24.143 1.516l17.026-13.229c3.079 1.455 6.227 2.763 9.422 3.913l2.694 21.408c1.149 9.125 8.948 16.007 18.139 16.007h30.391c9.192 0 16.99-6.882 18.139-16.007l2.694-21.408c3.196-1.15 6.343-2.457 9.423-3.913l17.026 13.229c7.262 5.642 17.64 4.991 24.143-1.516l21.49-21.512c6.496-6.503 7.146-16.884 1.514-24.147l-13.223-17.052c1.456-3.085 2.764-6.241 3.914-9.443l21.379-2.697c9.119-1.15 15.996-8.952 15.996-18.15v-30.423c0-6.969-3.953-13.131-9.833-16.211 28.409-8.237 54.246-24.039 74.832-46.126 28.67-30.753 44.456-70.866 44.456-112.948 0-91.32-74.222-165.615-165.452-165.615zm-238.299 322.259-2.938-23.34c-.369-2.931-2.421-5.374-5.245-6.244-4.823-1.485-9.545-3.446-14.034-5.828-2.613-1.387-5.797-1.112-8.133.704l-18.572 14.43c-.838.652-2.036.576-2.787-.176l-19.22-19.239c-.756-.756-.832-1.965-.176-2.811l14.416-18.592c1.81-2.334 2.085-5.512.702-8.122-2.38-4.493-4.339-9.221-5.824-14.052-.868-2.824-3.311-4.878-6.243-5.247l-23.316-2.941c-1.056-.133-1.852-1.04-1.852-2.109v-27.208c0-1.069.796-1.975 1.852-2.109l23.316-2.941c2.932-.37 5.375-2.423 6.243-5.248 1.484-4.83 3.444-9.558 5.824-14.052 1.382-2.61 1.107-5.788-.702-8.121l-14.416-18.591c-.656-.846-.581-2.054.176-2.811l19.22-19.24c.751-.751 1.948-.826 2.787-.175l18.572 14.43c2.335 1.815 5.518 2.09 8.133.704 4.489-2.382 9.211-4.343 14.035-5.829 2.823-.869 4.875-3.312 5.244-6.243l2.938-23.34c.133-1.06 1.035-1.859 2.098-1.859h27.18c1.063 0 1.966.799 2.099 1.859l2.937 23.34c.369 2.931 2.421 5.374 5.244 6.244 4.823 1.485 9.546 3.447 14.036 5.829 2.613 1.387 5.798 1.111 8.133-.704l14.725-11.441c-2.356 11.11-3.606 22.625-3.606 34.428 0 28.251 7.29 56.001 20.861 80.47-7.239-5.302-17.341-4.569-23.718 1.815l-21.49 21.512c-5.681 5.687-6.891 14.341-3.336 21.281-1.854.728-3.722 1.403-5.603 1.982-2.823.87-4.875 3.313-5.244 6.244l-2.937 23.34c-.133 1.059-1.035 1.858-2.098 1.858h-27.181c-1.064.001-1.966-.798-2.1-1.857zm48.639-16.79c1.941-.712 3.868-1.491 5.772-2.334l5.796 7.474c-1.456 3.087-2.765 6.242-3.915 9.444l-9.642 1.216zm230.634 65.854c0 1.641-1.224 3.034-2.847 3.239l-26.07 3.288c-2.932.37-5.374 2.423-6.243 5.248-1.677 5.454-3.889 10.793-6.576 15.867-1.382 2.61-1.107 5.788.702 8.121l16.119 20.789c1.007 1.298.891 3.153-.27 4.315l-21.49 21.512c-1.156 1.156-2.999 1.272-4.289.271l-20.767-16.136c-2.337-1.815-5.519-2.091-8.133-.704-5.068 2.689-10.4 4.903-15.847 6.581-2.823.869-4.876 3.313-5.245 6.244l-3.284 26.097c-.205 1.628-1.592 2.855-3.227 2.855h-30.391c-1.635 0-3.023-1.228-3.228-2.855l-3.285-26.098c-.369-2.931-2.421-5.374-5.244-6.244-5.447-1.677-10.779-3.891-15.848-6.581-2.585-1.372-5.822-1.092-8.133.704l-20.766 16.136c-1.291 1.003-3.134.886-4.289-.271l-21.49-21.512c-1.161-1.161-1.277-3.017-.27-4.315l16.119-20.788c1.809-2.334 2.084-5.511.702-8.121-2.687-5.076-4.9-10.414-6.576-15.866-.868-2.825-3.311-4.878-6.243-5.248l-26.07-3.288c-1.623-.205-2.847-1.597-2.847-3.239v-30.423c0-1.642 1.224-3.034 2.847-3.239l26.07-3.288c2.932-.37 5.375-2.423 6.243-5.248 1.676-5.452 3.888-10.791 6.576-15.868 1.382-2.61 1.107-5.787-.703-8.121l-16.119-20.787c-1.006-1.298-.89-3.154.27-4.315l21.49-21.512c1.155-1.156 2.999-1.272 4.289-.27l20.766 16.135c2.336 1.815 5.52 2.09 8.133.704 5.068-2.689 10.4-4.904 15.848-6.581 2.823-.869 4.875-3.313 5.244-6.244l3.285-26.097c.205-1.628 1.592-2.855 3.228-2.855h30.391c1.635 0 3.022 1.228 3.227 2.855l3.284 26.098c.369 2.931 2.421 5.374 5.245 6.244 5.448 1.678 10.78 3.892 15.847 6.581 2.613 1.386 5.798 1.111 8.134-.704l20.767-16.136c1.291-1.002 3.134-.886 4.289.271l21.49 21.512c1.16 1.161 1.276 3.017.27 4.315l-16.119 20.787c-1.81 2.334-2.085 5.511-.703 8.121 2.687 5.075 4.9 10.414 6.576 15.868.868 2.824 3.311 4.878 6.243 5.248l26.071 3.288c1.623.205 2.847 1.597 2.847 3.239zm69.035-103.007c-24.656 26.454-57.588 42.986-93.235 46.945-.649-1.565-1.336-3.116-2.06-4.65l10.293-13.275c27.317-5.184 52.821-19.061 72.087-39.34 2.859-3.009 2.737-7.766-.272-10.624s-7.765-2.736-10.624.272c-14.868 15.65-33.916 27-54.56 32.729-.435-4.025-2.177-7.919-5.216-10.961l-21.49-21.512c-6.502-6.507-16.881-7.16-24.143-1.516l-17.026 13.229c-3.079-1.455-6.227-2.763-9.423-3.913l-2.694-21.408c-1.149-9.125-8.947-16.007-18.139-16.007h-30.391c-3.12 0-6.07.808-8.663 2.212-8.774-16.883-13.388-35.664-13.388-54.882 0-65.653 53.354-119.065 118.934-119.065s118.935 53.412 118.935 119.065c0 20.846-5.458 41.355-15.784 59.308-2.069 3.598-.83 8.191 2.768 10.261 3.598 2.069 8.192.83 10.261-2.768 11.635-20.23 17.785-43.329 17.785-66.801 0-73.94-60.096-134.094-133.964-134.094s-133.964 60.154-133.964 134.094c0 24.298 6.548 47.981 18.935 68.717l-2.689 21.368c-.734.264-1.466.539-2.195.82-19.709-26.045-30.51-58.104-30.51-90.905 0-83.033 67.479-150.585 150.423-150.585 82.943 0 150.423 67.552 150.423 150.585 0 38.266-14.353 74.739-40.414 102.701z" />
        <path
            d="m264.859 308.452c-31.231 0-56.639 25.431-56.639 56.69 0 14.266 5.314 27.899 14.961 38.388 2.81 3.055 7.564 3.254 10.618.444 3.055-2.81 3.253-7.564.444-10.618-7.09-7.708-10.994-17.728-10.994-28.214 0-22.972 18.666-41.661 41.61-41.661s41.61 18.689 41.61 41.661-18.666 41.66-41.61 41.66c-2.828 0-5.652-.285-8.392-.846-4.065-.831-8.037 1.788-8.87 5.854s1.788 8.037 5.853 8.87c3.731.765 7.57 1.152 11.408 1.152 31.231 0 56.639-25.431 56.639-56.69.002-31.259-25.407-56.69-56.638-56.69z" />
        <path
            d="m175.387 224.12c0-28.394-23.08-51.494-51.449-51.494-4.15 0-7.515 3.365-7.515 7.515s3.364 7.515 7.515 7.515c20.082 0 36.42 16.358 36.42 36.465s-16.338 36.465-36.42 36.465-36.419-16.358-36.419-36.465c0-10.767 4.719-20.929 12.946-27.882 3.17-2.679 3.568-7.42.889-10.59s-7.42-3.568-10.59-.889c-11.614 9.815-18.275 24.161-18.275 39.361 0 28.394 23.08 51.494 51.449 51.494s51.449-23.101 51.449-51.495z" />
    </g>
</svg>